<?xml version="1.0" encoding="UTF-8"?>
<svg version="1.1" xmlns="http://www.w3.org/2000/svg" width="500" height="500">
<path d="M0 0 C6.3298349 3.67439197 12.13205615 8.22757283 17.96923828 12.62548828 C21.609885 15.34217334 25.30892064 17.97749879 29 20.625 C38.85560376 27.72149613 48.56738028 35.00345301 58.23046875 42.359375 C59.27146729 43.1481604 59.27146729 43.1481604 60.33349609 43.95288086 C61.63215225 44.93704542 62.92834053 45.92448141 64.22119141 46.91625977 C67.84666083 49.65979287 71.55722666 52.15719725 75.4140625 54.56640625 C80.90199641 58.01821256 86.01361079 61.83108466 91.125 65.8125 C103.06030484 75.00743056 115.22640527 83.85106439 127.58984375 92.4609375 C132.50984595 95.89638928 137.40181408 99.36735041 142.26025391 102.88916016 C143.45535735 103.75011384 144.65554108 104.60406185 145.86083984 105.45068359 C153.22665664 110.62923557 159.53324589 115.58132706 163.0625 124.1875 C163.13339844 125.01507813 163.20429688 125.84265625 163.27734375 126.6953125 C164.48901525 130.54131459 167.5723463 131.80394445 170.875 133.75 C196.11961589 149.68354456 212.93876428 178.16908962 219.46679688 206.85864258 C223.26188647 225.60484173 222.58924863 245.90530835 217.0625 264.1875 C216.711875 265.45078125 216.36125 266.7140625 216 268.015625 C213.15522059 277.45871221 208.8520582 285.84001915 204.03637695 294.41088867 C202.99535061 296.3099984 202.03104051 298.25041898 201.0625 300.1875 C204.0325 303.1575 207.0025 306.1275 210.0625 309.1875 C211.7125 308.1975 213.3625 307.2075 215.0625 306.1875 C219.98678917 306.1875 222.93065139 307.2887962 226.56616211 310.63330078 C228.11646626 312.24355306 229.560379 313.91063789 231.00390625 315.6171875 C235.56804941 320.86373537 240.48091928 325.75598985 245.4050293 330.66040039 C246.99708966 332.24709946 248.5837299 333.83907742 250.16992188 335.43164062 C255.10203947 340.36630879 260.08806137 345.16946936 265.3918457 349.70825195 C267.85297918 351.88741427 270.00725533 354.2929531 272.1875 356.75 C278.07560094 363.27700339 284.27394477 369.4860552 290.5 375.6875 C290.98430481 376.16994171 291.46860962 376.65238342 291.96759033 377.14944458 C294.19838569 379.37046113 296.43119554 381.58942787 298.66577148 383.80664062 C299.45669189 384.59232422 300.2476123 385.37800781 301.0625 386.1875 C301.94301025 387.05310547 302.82352051 387.91871094 303.73071289 388.81054688 C310.16318483 395.36761386 312.12330947 401.576989 312.4375 410.5 C312.23598763 420.27334984 309.04055572 427.12058822 302.35546875 434.20703125 C294.73066696 440.79267777 286.52434459 442.56204268 276.70703125 442.4609375 C267.40669519 441.76316309 261.57842303 437.46903731 255.0625 431.1875 C253.18804516 429.49939447 251.31299334 427.81195168 249.4375 426.125 C240.45322537 417.90709482 231.65227625 409.39512093 223.76171875 400.11328125 C218.97052886 394.68326604 213.76221115 389.6332165 208.28125 384.90625 C203.82990221 381.03907956 199.65684379 376.92941489 195.5 372.75 C194.78392578 372.03779297 194.06785156 371.32558594 193.33007812 370.59179688 C189.23431329 366.48857842 185.31380308 362.28941467 181.54125977 357.88671875 C180.26543434 356.42068854 178.9196534 355.01608223 177.5625 353.625 C176.0625 351.1875 176.0625 351.1875 176.1875 347.5625 C177.0625 344.1875 177.0625 344.1875 179.0625 341.1875 C176.0925 338.2175 173.1225 335.2475 170.0625 332.1875 C165.6476442 333.6591186 163.11919868 334.6024677 159.4375 337 C134.07246722 352.43632719 99.84042366 355.18869276 71.375 348.31640625 C69.93651824 347.94387474 68.49893879 347.56783288 67.0625 347.1875 C65.268125 346.73697266 65.268125 346.73697266 63.4375 346.27734375 C50.14492998 342.58673837 33.53704296 335.53263763 24.86907959 324.36036682 C20.26481777 318.64536647 16.30931336 316.02998863 8.90686035 315.19772339 C1.6895889 314.74998562 -5.52197698 314.81639017 -12.74734402 314.93610072 C-16.41778033 314.98461668 -20.08794256 314.96849947 -23.75860596 314.9591217 C-30.70145554 314.95065952 -37.6427872 314.99613919 -44.58527875 315.06299168 C-54.76845063 315.15869295 -64.95181704 315.17440517 -75.13537979 315.18805027 C-76.64333346 315.19017312 -78.1512871 315.19231397 -79.65924072 315.19447327 C-80.39587078 315.19541805 -81.13250084 315.19636284 -81.89145303 315.19733626 C-86.24818467 315.20476739 -90.6044472 315.2283655 -94.96101427 315.26672447 C-97.01887885 315.28405408 -99.07672383 315.29713886 -101.1346283 315.3086853 C-103.63484204 315.32358668 -106.13502771 315.34600132 -108.63508606 315.37760925 C-118.8806366 315.42119097 -127.03350839 314.15638989 -134.9375 307.1875 C-140.55372432 299.60117667 -140.65858903 291.65927105 -140.59692383 282.55810547 C-140.60539216 281.10835906 -140.61604317 279.65862403 -140.62869263 278.20890808 C-140.65667319 274.30243924 -140.65439712 270.3965226 -140.64639878 266.48998404 C-140.64325977 262.3966534 -140.66834869 258.30349437 -140.69035339 254.2102356 C-140.72770921 246.4721483 -140.73993635 238.73423671 -140.7429778 230.99606812 C-140.74767784 222.18092577 -140.78063142 213.36595843 -140.81587565 204.55089355 C-140.88769848 186.42977917 -140.92430903 168.30874719 -140.9375 150.1875 C-141.95070313 150.91936523 -141.95070313 150.91936523 -142.984375 151.66601562 C-143.87640625 152.30216797 -144.7684375 152.93832031 -145.6875 153.59375 C-146.56921875 154.22603516 -147.4509375 154.85832031 -148.359375 155.50976562 C-154.17674666 159.2954643 -159.70220363 159.62114339 -166.484375 158.7265625 C-173.33453191 157.22127324 -180.08556911 153.23305053 -184.16015625 147.453125 C-188.45948161 140.24135342 -189.13748398 132.70904793 -187.359375 124.52734375 C-184.9404126 117.41339523 -180.82023437 113.638497 -174.9375 109.1875 C-174.2244873 108.64480469 -173.51147461 108.10210937 -172.77685547 107.54296875 C-157.52334789 95.97668007 -157.52334789 95.97668007 -152.38671875 93.1796875 C-148.05283319 90.67653729 -144.27922267 87.68014222 -140.375 84.5625 C-134.4587065 79.8993166 -128.50014303 75.35414476 -122.33984375 71.01928711 C-117.29441638 67.46396379 -112.3334951 63.80034367 -107.375 60.125 C-102.11453249 56.23104236 -96.83950005 52.38288092 -91.4375 48.6875 C-83.63586023 43.34485808 -76.06580525 37.69260572 -68.47070312 32.06201172 C-65.87509253 30.14131992 -63.27433829 28.22780092 -60.671875 26.31640625 C-59.81609863 25.68758545 -58.96032227 25.05876465 -58.07861328 24.41088867 C-56.4420204 23.20861382 -54.80499898 22.00692203 -53.16748047 20.8059082 C-50.09931674 18.54916243 -47.06125054 16.28711238 -44.09375 13.8984375 C-41.86354592 12.12881905 -39.52205692 10.82651147 -37.03125 9.4609375 C-33.36674243 7.23215118 -29.9991872 4.58391005 -26.5859375 1.9921875 C-18.92674659 -3.22690719 -8.47084895 -3.92274213 0 0 Z M-12.9375 56.1875 C-13.2675 57.1775 -13.5975 58.1675 -13.9375 59.1875 C-14.700625 59.27 -15.46375 59.3525 -16.25 59.4375 C-19.46123261 60.33365794 -20.23124499 61.40361025 -21.9375 64.1875 C-17.37629688 65.36458468 -12.62137647 65.70500695 -7.9375 65.1875 C-6.9475 64.5275 -5.9575 63.8675 -4.9375 63.1875 C-6.32627354 59.83129729 -7.85427965 58.11451272 -10.9375 56.1875 C-11.5975 56.1875 -12.2575 56.1875 -12.9375 56.1875 Z M60.0625 108.1875 C58.5775 113.6325 58.5775 113.6325 57.0625 119.1875 C60.6925 118.1975 64.3225 117.2075 68.0625 116.1875 C66.94583826 112.83751479 66.31555075 112.39409778 63.5 110.5 C62.365625 109.736875 61.23125 108.97375 60.0625 108.1875 Z M-6.9375 170.1875 C-6.6075 171.8375 -6.2775 173.4875 -5.9375 175.1875 C-4.04536631 172.80176621 -2.91358217 171.11574652 -1.9375 168.1875 C-4.26107511 168.00259993 -4.26107511 168.00259993 -6.9375 170.1875 Z M-68.9375 235.1875 C-69.2675 236.1775 -69.5975 237.1675 -69.9375 238.1875 C-71.5875 238.5175 -73.2375 238.8475 -74.9375 239.1875 C-75.36091773 245.85632926 -74.59513122 251.77231923 -73.125 258.25 C-72.95967773 259.0123999 -72.79435547 259.7747998 -72.62402344 260.56030273 C-72.08174179 262.96406143 -72.08174179 262.96406143 -70.9375 266.1875 C-69.9475 266.5175 -68.9575 266.8475 -67.9375 267.1875 C-67.9375 256.6275 -67.9375 246.0675 -67.9375 235.1875 C-68.2675 235.1875 -68.5975 235.1875 -68.9375 235.1875 Z " fill="#0B0A09" transform="translate(187.9375,29.8125)"/>
<path d="M0 0 C1.32 0.33 2.64 0.66 4 1 C4 1.66 4 2.32 4 3 C4.73863281 3.26425781 5.47726563 3.52851562 6.23828125 3.80078125 C8.98749716 4.9945709 10.8797533 6.29540749 13.1875 8.1875 C16.18945193 10.58710269 19.20830063 12.88504877 22.375 15.0625 C27.32322174 18.48642433 32.16270646 22.04720067 37 25.625 C46.28177 32.48874421 55.6271552 39.26130913 65 46 C64.68991116 47.60463449 64.37683713 49.20869231 64.0625 50.8125 C63.88847656 51.70582031 63.71445313 52.59914062 63.53515625 53.51953125 C63 56 63 56 62 59 C59.5984569 60.3202513 57.23632244 61.48851738 54.75 62.625 C41.83138671 68.83210257 31.26682597 77.09316092 21 87 C20.17371094 87.763125 19.34742188 88.52625 18.49609375 89.3125 C13.55395522 93.99540622 10.05984457 98.7272623 6.80078125 104.71484375 C4.51785783 107.611829 2.52380875 108.13752933 -1 109 C-1 110.65 -1 112.3 -1 114 C-2.55726807 114.02187378 -2.55726807 114.02187378 -4.14599609 114.04418945 C-8.04150815 114.10268225 -11.93647255 114.17990613 -15.83154297 114.26245117 C-17.50918613 114.29546296 -19.18693402 114.32356676 -20.86474609 114.34643555 C-37.85747628 114.23664421 -37.85747628 114.23664421 -52.375 122.125 C-53.16648437 122.82882813 -53.95796875 123.53265625 -54.7734375 124.2578125 C-62.0203343 133.18293804 -61.57036742 142.71019678 -61.5625 153.6875 C-61.56612243 156.06212507 -61.57577047 158.43602626 -61.60325623 160.8105011 C-61.61988999 162.2784975 -61.62304321 163.74673261 -61.61024475 165.21476746 C-61.6578877 169.86059936 -62.51982949 173.06602701 -65 177 C-67.1875 177.875 -67.1875 177.875 -69 178 C-69.4223273 184.65165503 -68.66192527 190.54155398 -67.1875 197 C-67.02217773 197.754021 -66.85685547 198.50804199 -66.68652344 199.28491211 C-65.61309616 203.95304928 -65.61309616 203.95304928 -62 207 C-61.65942383 209.98095703 -61.65942383 209.98095703 -61.70703125 213.7578125 C-61.71127609 214.42086395 -61.71552094 215.08391541 -61.71989441 215.76705933 C-61.73670029 217.88678441 -61.77435299 220.00556188 -61.8125 222.125 C-61.82754451 223.56118419 -61.84123332 224.99738328 -61.85351562 226.43359375 C-61.8866091 229.95603764 -61.9384032 233.47792636 -62 237 C-69.4930168 237.07593983 -76.98593471 237.12855332 -84.47924805 237.16479492 C-87.02941598 237.17990005 -89.57955786 237.20038533 -92.12963867 237.22631836 C-95.79091819 237.26262504 -99.45185485 237.27970915 -103.11328125 237.29296875 C-104.2571077 237.30845261 -105.40093414 237.32393646 -106.579422 237.33988953 C-108.17073189 237.34022942 -108.17073189 237.34022942 -109.79418945 237.34057617 C-111.19650566 237.35056892 -111.19650566 237.35056892 -112.62715149 237.36076355 C-115.57231291 236.91298659 -116.24228784 236.3827447 -118 234 C-118.42221642 231.17118359 -118.42221642 231.17118359 -118.48861694 227.65922546 C-118.50458597 227.01317173 -118.52055499 226.367118 -118.53700793 225.70148689 C-118.58651238 223.53238957 -118.61443433 221.36356997 -118.64208984 219.1940918 C-118.67234544 217.64000982 -118.70364124 216.0859478 -118.73590088 214.53190613 C-118.8352588 209.42126595 -118.9010149 204.31045458 -118.9609375 199.19921875 C-118.97674826 197.89296299 -118.97674826 197.89296299 -118.99287844 196.56031823 C-119.09091205 188.33861282 -119.1757323 180.11685991 -119.23082542 171.89474773 C-119.30208152 161.39721065 -119.43643873 150.90477488 -119.65817487 140.40930814 C-119.80895373 133.01974468 -119.88599563 125.63155117 -119.90969241 118.24050075 C-119.92580161 113.83111967 -119.9733995 109.42756659 -120.10056686 105.01987267 C-120.8341235 78.36436672 -120.8341235 78.36436672 -116.18985748 71.21249771 C-111.90980897 66.73742133 -107.06437487 63.88997845 -101.50058365 61.27257729 C-97.2175401 59.09288458 -93.50601741 56.14481034 -89.6875 53.25 C-88.19420039 52.16800818 -86.6984647 51.08936221 -85.19921875 50.015625 C-84.1326001 49.24895508 -84.1326001 49.24895508 -83.04443359 48.46679688 C-79.47798684 45.90801826 -75.90486863 43.35862978 -72.33129883 40.80981445 C-57.49646054 30.23792687 -57.49646054 30.23792687 -42.875 19.375 C-38.16291924 15.817841 -33.35828283 12.41549186 -28.5 9.0625 C-27.47495361 8.35262939 -27.47495361 8.35262939 -26.42919922 7.62841797 C-25.78225098 7.1851416 -25.13530273 6.74186523 -24.46875 6.28515625 C-23.89576172 5.89207275 -23.32277344 5.49898926 -22.73242188 5.09399414 C-18.54064678 2.44696142 -16.86211876 1.91952916 -12 3 C-7.77636465 3.20857459 -4.03559165 3.34519722 0 2 C0 1.34 0 0.68 0 0 Z " fill="#EEF3F5" transform="translate(183,91)"/>
<path d="M0 0 C16.28562225 13.84813603 27.16863826 31.49228819 28.98486328 53.03588867 C30.0492488 75.52341719 25.12905027 96.05784064 9.75 113.25 C9.10675781 113.98605469 8.46351563 114.72210938 7.80078125 115.48046875 C-5.23823616 129.48355399 -24.07193887 138.55851172 -43.1796875 139.5703125 C-65.48283164 140.28124315 -84.88211949 134.11719965 -101.484375 118.89453125 C-116.35043999 104.67938153 -125.85718006 85.32049078 -126.53320312 64.59423828 C-126.86008031 41.92530569 -119.11718201 23.2182277 -104.25 6.25 C-97.80294577 0.30801454 -90.84735913 -4.42687587 -83.25 -8.75 C-82.26 -9.41 -81.27 -10.07 -80.25 -10.75 C-77.92684969 -11.4513284 -75.59210921 -12.11485174 -73.25 -12.75 C-72.239375 -13.100625 -71.22875 -13.45125 -70.1875 -13.8125 C-46.98841251 -21.21646409 -19.04736192 -14.46298133 0 0 Z " fill="#FAB702" transform="translate(337.25,199.75)"/>
<path d="M0 0 C1.00812744 0.00563965 2.01625488 0.0112793 3.05493164 0.01708984 C20.85197296 0.30443717 37.27093178 5.44035434 52.359375 14.796875 C54.68535403 16.31130173 54.68535403 16.31130173 56.828125 17.203125 C59.65201807 18.78183687 61.57563738 20.98738483 63.8125 23.3125 C64.65167969 24.08207031 65.49085938 24.85164063 66.35546875 25.64453125 C82.72198584 40.99569573 94.13410237 63.54308767 95.16015625 86.1015625 C95.83121919 113.93963729 88.60598901 134.81356276 70.8125 156.3125 C70.20792969 157.12203125 69.60335937 157.9315625 68.98046875 158.765625 C66.36303108 161.84052475 63.49571364 164.22185159 60.3125 166.6875 C59.38763794 167.40595093 59.38763794 167.40595093 58.4440918 168.13891602 C45.55824571 177.97333021 32.85178285 183.0419053 17.0234375 185.69921875 C13.96623584 185.97146618 13.96623584 185.97146618 12.8125 187.3125 C0.81336428 188.22183857 -11.7624008 188.32954401 -23.1875 184.3125 C-24.12722656 184.04566406 -25.06695312 183.77882813 -26.03515625 183.50390625 C-39.37979592 179.5479854 -50.935972 172.67749649 -61.1875 163.3125 C-62.35539062 162.26642578 -62.35539062 162.26642578 -63.546875 161.19921875 C-79.97541471 145.7054063 -91.53102717 122.26661106 -92.42578125 99.546875 C-93.0205879 70.10798294 -83.34624723 46.28666593 -62.92578125 24.94921875 C-46.26313678 9.00265487 -22.97134481 -0.13570716 0 0 Z M-25.1875 20.3125 C-26.0125 20.56 -26.8375 20.8075 -27.6875 21.0625 C-36.3831577 24.16809203 -43.23860265 28.81605939 -49.8984375 35.1640625 C-52.1875 37.3125 -52.1875 37.3125 -54.6875 39.18359375 C-57.63949286 41.69740017 -59.68920109 44.54674734 -61.8125 47.75 C-62.1940625 48.31009766 -62.575625 48.87019531 -62.96875 49.44726562 C-74.28130221 66.16253673 -78.38078475 86.03421477 -75.6875 106.0234375 C-71.55789252 127.28153054 -60.1027689 146.25027359 -42.1171875 158.50390625 C-23.5123134 169.98931519 -3.53333662 174.65254997 18.16552734 170.28027344 C31.47835358 167.10218036 43.74232996 160.53465572 53.8125 151.3125 C54.56789063 150.66023437 55.32328125 150.00796875 56.1015625 149.3359375 C66.69756673 139.61383053 72.70844618 126.89378652 76.8125 113.3125 C77.17730469 112.25933594 77.54210937 111.20617187 77.91796875 110.12109375 C82.4402553 90.86681696 78.08857694 70.02552568 68.546875 53.0625 C62.10228337 42.69189277 53.3280751 33.52261132 42.8125 27.3125 C41.93464844 26.79171875 41.05679688 26.2709375 40.15234375 25.734375 C23.31798222 16.56462649 -7.90294774 8.78946516 -25.1875 20.3125 Z " fill="#0A0601" transform="translate(287.1875,167.6875)"/>
<path d="M0 0 C3.20490453 1.71581887 6.07277053 3.85243133 9 6 C10.81018831 7.27412396 12.6226684 8.54499857 14.4375 9.8125 C15.26121094 10.39644531 16.08492187 10.98039062 16.93359375 11.58203125 C18.93369733 13.02406592 18.93369733 13.02406592 21 14 C21 14.66 21 15.32 21 16 C21.66128906 16.20625 22.32257813 16.4125 23.00390625 16.625 C27.12336066 18.51554492 30.39342698 21.20084935 33.9375 24 C35.46741257 25.18922257 36.99867998 26.37670409 38.53125 27.5625 C39.28921875 28.14902344 40.0471875 28.73554687 40.828125 29.33984375 C43.81891129 31.62596636 46.86420467 33.8266024 49.9375 36 C50.49526123 36.39469482 51.05302246 36.78938965 51.62768555 37.19604492 C52.79378504 38.02073448 53.96004872 38.84519193 55.12646484 39.66943359 C58.68324754 42.195426 62.21524905 44.75581672 65.75 47.3125 C66.50788818 47.86035156 67.26577637 48.40820312 68.04663086 48.97265625 C69.59302278 50.09053779 71.13932762 51.20853981 72.68554688 52.32666016 C75.7093185 54.51283428 78.73420422 56.69746322 81.75927734 58.88183594 C83.25456626 59.96167631 84.74968314 61.04175493 86.24462891 62.12207031 C90.01663042 64.84761388 93.79105935 67.56967495 97.5703125 70.28515625 C110.55560555 79.62323826 123.44112542 89.09244339 136 99 C127.71463376 103.14268312 109.86633143 100.18449047 101 98 C94.01890908 95.05397752 88.68398015 90.1539504 83.22216797 85.01171875 C79.59924894 81.73190631 75.6229073 78.98675211 71.625 76.1875 C70.13693265 75.12000486 68.64992286 74.0510337 67.1640625 72.98046875 C62.88542614 69.91577563 58.6033148 66.85594808 54.31787109 63.80078125 C49.61616295 60.4468334 44.93122151 57.06996951 40.25 53.6875 C39.49565674 53.14254883 38.74131348 52.59759766 37.96411133 52.03613281 C34.07652592 49.22662423 30.19124771 46.41397599 26.30859375 43.59765625 C22.56776779 40.88448654 18.81595901 38.18696519 15.06152344 35.49267578 C13.10250894 34.07422307 11.16303207 32.63260009 9.2265625 31.18359375 C8.08883374 30.35116316 6.9508318 29.51910575 5.8125 28.6875 C4.84957031 27.96949219 3.88664063 27.25148438 2.89453125 26.51171875 C-0.87752516 24.54169739 -2.78370368 24.29430634 -7 25 C-10.19329391 26.74390958 -12.96760088 28.92950319 -15.8125 31.1875 C-17.49922837 32.47887308 -19.18674781 33.76921345 -20.875 35.05859375 C-21.72707031 35.71714355 -22.57914063 36.37569336 -23.45703125 37.05419922 C-27.35099541 40.03373977 -31.32797274 42.89335552 -35.3125 45.75 C-36.80859515 46.82812306 -38.30468893 47.90624802 -39.80078125 48.984375 C-44.08326635 52.0625628 -48.37496721 55.12771985 -52.66870117 58.19018555 C-63.43496775 65.87374363 -74.17936526 73.58373306 -84.73828125 81.55078125 C-94.54728559 88.93671858 -104.40875821 96.27040723 -114.51171875 103.25 C-117.08902718 105.06261252 -119.62912597 106.91921502 -122.16503906 108.7890625 C-124.07642474 110.1977626 -125.99288481 111.59932403 -127.91015625 113 C-130.78862107 115.10362837 -133.64489073 117.23460795 -136.49609375 119.375 C-137.9968476 120.4799117 -139.49813824 121.58409472 -141 122.6875 C-142.04039429 123.48160278 -142.04039429 123.48160278 -143.10180664 124.29174805 C-147.49631985 127.48462412 -150.37905057 128.79411448 -156 128 C-158.75329021 126.20437595 -160.52627461 124.94745078 -162 122 C-162.55910987 116.31571627 -162.55910987 116.31571627 -162 114 C-158.2573585 109.56105311 -153.58693858 106.3849684 -148.875 103.0625 C-147.25718457 101.90843183 -145.64001796 100.75345368 -144.0234375 99.59765625 C-143.19295898 99.00484863 -142.36248047 98.41204102 -141.50683594 97.80126953 C-137.47657304 94.90535215 -133.48878174 91.95265428 -129.5 89 C-122.62424711 83.9179523 -115.711939 78.89030387 -108.77172852 73.89672852 C-103.2962226 69.95132795 -97.86181388 65.95290118 -92.4375 61.9375 C-85.82442616 57.04490066 -79.14827915 52.25716451 -72.41162109 47.53662109 C-66.26296787 43.21528993 -60.21417382 38.76542537 -54.17382812 34.29443359 C-46.47421104 28.59841678 -38.70931637 22.99530526 -30.9375 17.3984375 C-28.28458971 15.48363532 -25.64212735 13.55464357 -23 11.625 C-5.98473336 -0.76169334 -5.98473336 -0.76169334 0 0 Z " fill="#F5675B" transform="translate(179,44)"/>
<path d="M0 0 C2.79130468 2.19526767 2.79130468 2.19526767 5.83984375 4.01171875 C9.35834327 6.53085388 11.67230611 9.28327953 14.26171875 12.7109375 C14.73834961 13.33226562 15.21498047 13.95359375 15.70605469 14.59375 C19.74377486 19.91905731 23.49053548 25.35072746 26.82421875 31.1484375 C27.71753906 32.6953125 27.71753906 32.6953125 28.62890625 34.2734375 C40.66549041 56.59019439 43.49462354 83.70099778 36.46582031 108.04003906 C31.50132416 124.35411392 24.34912561 138.4014769 12.82421875 151.1484375 C12.00308594 152.06367188 11.18195313 152.97890625 10.3359375 153.921875 C-8.22651437 173.55682409 -35.21872917 184.72326719 -62.12890625 185.4909668 C-71.40655814 185.60924974 -80.08509054 184.73422237 -89.17578125 182.8359375 C-90.19607422 182.62308105 -91.21636719 182.41022461 -92.26757812 182.19091797 C-97.10612485 181.09988905 -101.04570615 180.00467718 -105.17578125 177.1484375 C-106.37203125 176.7359375 -107.56828125 176.3234375 -108.80078125 175.8984375 C-130.58078677 167.97100585 -149.1568304 146.3738392 -159.32373047 126.04003906 C-161.90801141 120.30278729 -163.52263437 114.20356851 -165.17578125 108.1484375 C-165.52898437 106.98183594 -165.8821875 105.81523437 -166.24609375 104.61328125 C-172.67645159 80.64804005 -167.7761093 52.24632118 -155.86328125 30.8359375 C-152.16810881 24.45302209 -148.15467566 18.61266952 -143.17578125 13.1484375 C-142.7060791 12.62040527 -142.23637695 12.09237305 -141.75244141 11.54833984 C-104.69854079 -29.66526488 -43.26764305 -33.64605258 0 0 Z M-93.17578125 -7.8515625 C-93.80387695 -7.64257324 -94.43197266 -7.43358398 -95.07910156 -7.21826172 C-119.17004179 0.97363976 -137.4563975 17.86543394 -149.11328125 40.3359375 C-151.99776931 46.46374946 -154.37834495 52.61805335 -156.17578125 59.1484375 C-156.40136719 59.94636719 -156.62695312 60.74429688 -156.859375 61.56640625 C-162.35865098 85.42188621 -156.42405798 110.9239148 -143.96606445 131.54760742 C-139.53115697 138.51520154 -134.03708689 144.36905088 -128.17578125 150.1484375 C-127.42554688 150.90898437 -126.6753125 151.66953125 -125.90234375 152.453125 C-117.31823298 160.65430146 -106.3243734 166.27595144 -95.17578125 170.1484375 C-94.16257812 170.50808594 -93.149375 170.86773437 -92.10546875 171.23828125 C-82.89455558 174.41796995 -74.89073805 175.33007098 -65.17578125 175.3359375 C-64.1084375 175.34818359 -63.04109375 175.36042969 -61.94140625 175.37304688 C-56.56382875 175.38307967 -52.22396042 175.17507877 -47.17578125 173.1484375 C-44.91015261 172.66503256 -42.63885754 172.2076103 -40.36328125 171.7734375 C-34.49169873 170.53634307 -29.47738828 168.92144118 -24.17578125 166.1484375 C-23.304375 165.71660156 -22.43296875 165.28476562 -21.53515625 164.83984375 C-14.73854096 161.33711883 -8.98994964 157.08715009 -3.17578125 152.1484375 C-2.221875 151.4059375 -1.26796875 150.6634375 -0.28515625 149.8984375 C3.4507767 146.77754134 6.32944789 143.07558942 9.26171875 139.2109375 C9.83011475 138.46312012 10.39851074 137.71530273 10.98413086 136.94482422 C15.86460834 130.36912583 19.6139264 123.7036945 22.82421875 116.1484375 C23.2315625 115.20613281 23.63890625 114.26382813 24.05859375 113.29296875 C32.80759506 91.32536764 30.67203799 65.51957241 21.69921875 44.0859375 C15.50649557 30.25608486 6.84568456 19.41500839 -4.17578125 9.1484375 C-4.68367187 8.60316406 -5.1915625 8.05789062 -5.71484375 7.49609375 C-9.2358245 4.24813023 -13.9627989 2.3539632 -18.17578125 0.1484375 C-19.09746094 -0.36203125 -20.01914062 -0.8725 -20.96875 -1.3984375 C-42.86092066 -13.11452332 -69.60304047 -15.85034663 -93.17578125 -7.8515625 Z " fill="#F4D232" transform="translate(353.17578125,179.8515625)"/>
<path d="M0 0 C0.98608749 0.00636726 0.98608749 0.00636726 1.99209595 0.01286316 C4.07068641 0.02951898 6.14827024 0.06714255 8.2265625 0.10546875 C9.64451714 0.1205327 11.06248714 0.1342181 12.48046875 0.14648438 C15.9378214 0.17937837 19.39459353 0.2310671 22.8515625 0.29296875 C21.88359398 5.27201037 20.62246768 10.16045374 19.3125 15.05859375 C11.98583314 43.49043531 18.73344598 73.35074557 32.08203125 98.83203125 C33.8515625 102.29296875 33.8515625 102.29296875 35.8515625 107.29296875 C18.6915625 107.29296875 1.5315625 107.29296875 -16.1484375 107.29296875 C-16.26876393 83.07616098 -16.26876393 83.07616098 -16.29492188 72.75 C-16.31285221 65.7051719 -16.33405955 58.66046082 -16.37475586 51.61572266 C-16.4073622 45.93582502 -16.42529333 40.25605289 -16.43306923 34.57606888 C-16.43861041 32.40954233 -16.44943095 30.24302262 -16.46562767 28.07654953 C-16.48741855 25.04095386 -16.49040369 22.0058762 -16.48901367 18.97021484 C-16.4997995 18.07541412 -16.51058533 17.1806134 -16.521698 16.25869751 C-16.49663029 11.19630688 -16.0140497 7.65425907 -13.1484375 3.29296875 C-8.75853331 0.31904915 -5.23015442 -0.06705326 0 0 Z " fill="#D98B37" transform="translate(153.1484375,220.70703125)"/>
<path d="M0 0 C2.9375 2 2.9375 2 5 5 C5.40476927 7.80743814 5.24230971 10.14074541 5 13 C6.485 13.061875 6.485 13.061875 8 13.125 C12.97023782 13.81194344 16.31467291 16.77934459 20 20 C20.56203125 20.48984375 21.1240625 20.9796875 21.703125 21.484375 C23 23 23 23 23.5 26.375 C23 30 23 30 20.875 32.9375 C18 35 18 35 15.0625 35.625 C10.80435205 34.75599021 9.06327161 33.06327161 6 30 C6 29.34 6 28.68 6 28 C3.60293877 27.89145383 1.21084162 27.81246843 -1.1875 27.75 C-1.86103516 27.71648437 -2.53457031 27.68296875 -3.22851562 27.6484375 C-6.89041975 27.57698571 -8.82150622 27.88465822 -11.92578125 29.890625 C-14.61364817 32.62404899 -14.95794264 33.44273997 -15.25 37.3125 C-14.98368917 41.24058469 -14.43481646 42.95647943 -12 46 C-8.64440159 48.16858401 -5.75204446 48.25262466 -1.8125 48.375 C7.05003192 48.95126329 13.71236737 51.71236737 20 58 C25.06134411 65.202682 25.9778119 72.35179695 25 81 C23.75050182 84.33865913 22.06572417 87.10679555 20 90 C19.360625 90.928125 18.72125 91.85625 18.0625 92.8125 C14.28797526 96.81578381 10.51681203 99.35096329 5 100 C5.0825 101.051875 5.165 102.10375 5.25 103.1875 C4.96269651 107.56887825 4.05154419 108.94845581 1 112 C-1.87470493 113.43735246 -3.81894588 113.38172649 -7 113 C-9.56801099 110.83746443 -10.85355976 109.2778092 -11.2421875 105.88671875 C-11.24916401 103.92283161 -11.13284079 101.95940162 -11 100 C-12.03125 99.9175 -13.0625 99.835 -14.125 99.75 C-21.008726 98.41766594 -25.10098461 94.57002199 -29 89 C-30.0625 85.9375 -30.0625 85.9375 -30 83 C-28.1259064 79.62663152 -26.74202309 78.31329864 -23.1875 76.8125 C-19.01120684 77.0581643 -17.51301918 78.6882799 -14.61328125 81.5546875 C-11.45611453 84.38314195 -8.10053602 84.16254304 -4.0625 84.1875 C-3.02222656 84.20167969 -1.98195313 84.21585937 -0.91015625 84.23046875 C2.00972062 83.99923018 3.59002804 83.62282228 6 82 C8.66773607 77.9983959 8.71478813 74.70568852 8 70 C6.12379387 67.49839182 4.76108697 66.38054348 2 65 C0.31594764 64.81864052 -1.37271838 64.67895471 -3.0625 64.5625 C-12.77038871 63.68802961 -19.35272996 62.73008325 -26 55 C-30.8907487 47.28222894 -31.72564596 40.04428302 -31 31 C-29.31042676 23.81124252 -25.0543177 19.06246969 -19 15 C-17.70287421 14.4806527 -16.39046923 13.99695907 -15.0625 13.5625 C-13.5465625 12.7890625 -13.5465625 12.7890625 -12 12 C-11.28226927 8.37935727 -11.28226927 8.37935727 -11.21484375 5.94140625 C-11 4 -11 4 -9.375 1.5 C-5.98819887 -0.63903229 -3.93220624 -0.62087467 0 0 Z " fill="#0A0601" transform="translate(292,205)"/>
<path d="M0 0 C3.03094188 1.34878101 4.89457568 3.31571168 7.24649048 5.65336609 C7.98869591 6.38527664 7.98869591 6.38527664 8.74589539 7.13197327 C10.37804044 8.74583027 11.99886956 10.37052068 13.61904907 11.99638367 C14.75160766 13.12438068 15.88453751 14.25200503 17.01782227 15.37927246 C19.39159413 17.7441087 21.75959794 20.11454452 24.12393188 22.48881531 C27.14959002 25.52595004 30.19078295 28.54696643 33.23674965 31.56371593 C35.58071522 33.88930306 37.91526568 36.22416598 40.24720383 38.56180763 C41.36444673 39.67920362 42.48478778 40.793511 43.60829544 41.90460777 C45.18109004 43.46246765 46.74052091 45.03262014 48.29727173 46.60649109 C49.18677521 47.49616074 50.07627869 48.38583038 50.99273682 49.30245972 C54.51859343 53.65035551 55.68253941 58.26641315 55.52139282 63.86357117 C54.57439744 69.08669003 51.60363846 72.890759 47.39248657 75.95341492 C42.00526109 77.61102276 37.38676967 78.00393041 32.20498657 75.57841492 C27.44401796 71.86805111 23.34053186 67.27121427 19.14248657 62.95341492 C15.48286639 59.26735785 11.77559982 55.63194423 8.06158447 52.00076294 C4.80864932 48.81454335 1.56873879 45.61521919 -1.67050171 42.41508484 C-3.38486142 40.72604681 -5.10365538 39.04149822 -6.82675171 37.3613739 C-9.31488915 34.93360516 -11.78677137 32.49028696 -14.25595093 30.04325867 C-15.032883 29.29213303 -15.80981506 28.54100739 -16.61029053 27.76712036 C-17.31497467 27.06281387 -18.01965881 26.35850739 -18.74569702 25.63285828 C-19.37237274 25.01728561 -19.99904846 24.40171295 -20.64471436 23.76748657 C-21.85751343 21.95341492 -21.85751343 21.95341492 -21.72265625 19.89874268 C-20.24053261 16.56609495 -17.36551112 14.43808986 -14.67001343 12.07841492 C-13.52953633 11.06147867 -12.39020901 10.04325148 -11.25204468 9.02372742 C-10.40440552 8.27591003 -10.40440552 8.27591003 -9.53964233 7.51298523 C-7.82215153 5.92062945 -6.26520674 4.23254058 -4.68173218 2.50810242 C-1.85751343 -0.04658508 -1.85751343 -0.04658508 0 0 Z " fill="#B4CFD5" transform="translate(427.8575134277344,379.0465850830078)"/>
<path d="M0 0 C2.53655042 1.3518143 4.22653276 3.02594534 6.20703125 5.10546875 C6.9134375 5.83894531 7.61984375 6.57242187 8.34765625 7.328125 C8.87875 7.89402344 9.40984375 8.45992188 9.95703125 9.04296875 C5.57260599 14.29471801 0.94861032 19.17519348 -3.91796875 23.98046875 C-4.60632813 24.66431641 -5.2946875 25.34816406 -6.00390625 26.05273438 C-7.68130386 27.71848339 -9.36100666 29.38183095 -11.04296875 31.04296875 C-14.22383393 29.53350364 -16.34166781 27.9635505 -18.79296875 25.41796875 C-19.4065625 24.78632813 -20.02015625 24.1546875 -20.65234375 23.50390625 C-21.11125 23.02179688 -21.57015625 22.5396875 -22.04296875 22.04296875 C-18.97922656 17.57865871 -15.91510156 13.85209348 -12.04296875 10.04296875 C-11.20636719 9.14835937 -10.36976563 8.25375 -9.5078125 7.33203125 C-8.67378906 6.45289063 -7.83976562 5.57375 -6.98046875 4.66796875 C-6.14386719 3.77335937 -5.30726563 2.87875 -4.4453125 1.95703125 C-2.04296875 0.04296875 -2.04296875 0.04296875 0 0 Z " fill="#97B2BB" transform="translate(406.04296875,356.95703125)"/>
<path d="M0 0 C1.2065625 0.0309375 1.2065625 0.0309375 2.4375 0.0625 C2.9325 1.0525 2.9325 1.0525 3.4375 2.0625 C4.4275 2.3925 5.4175 2.7225 6.4375 3.0625 C6.3046875 4.91796875 6.3046875 4.91796875 5.4375 7.0625 C-2.33587604 11.0205034 -10.1084778 11.6211574 -18.5625 10.0625 C-18.5625 10.7225 -18.5625 11.3825 -18.5625 12.0625 C-22.65583905 12.13658587 -26.74891933 12.1910704 -30.84277344 12.22729492 C-32.23574622 12.24239358 -33.62867138 12.26287444 -35.02148438 12.28881836 C-37.02192885 12.32515122 -39.02271827 12.34061192 -41.0234375 12.35546875 C-42.83013916 12.37903442 -42.83013916 12.37903442 -44.67333984 12.40307617 C-45.6267627 12.29068604 -46.58018555 12.1782959 -47.5625 12.0625 C-48.2225 11.0725 -48.8825 10.0825 -49.5625 9.0625 C-49.2325 8.7325 -48.9025 8.4025 -48.5625 8.0625 C-49.5525 8.3925 -50.5425 8.7225 -51.5625 9.0625 C-51.5625 9.3925 -51.5625 9.7225 -51.5625 10.0625 C-56.97788462 10.43173077 -56.97788462 10.43173077 -59.9375 8.5625 C-60.47375 8.0675 -61.01 7.5725 -61.5625 7.0625 C-60.428125 6.753125 -59.29375 6.44375 -58.125 6.125 C-54.77474901 5.43325469 -54.77474901 5.43325469 -53.5625 4.0625 C-44.58376149 3.45734991 -35.76082777 4.32180463 -26.87353516 5.52661133 C-21.9419071 6.23174962 -21.9419071 6.23174962 -17.5625 4.0625 C-16.2425 4.0625 -14.9225 4.0625 -13.5625 4.0625 C-13.5625 3.4025 -13.5625 2.7425 -13.5625 2.0625 C-12.85222656 2.00191406 -12.14195312 1.94132812 -11.41015625 1.87890625 C-10.49105469 1.79511719 -9.57195312 1.71132813 -8.625 1.625 C-7.70847656 1.54378906 -6.79195313 1.46257812 -5.84765625 1.37890625 C-3.0392385 0.99004841 -2.92897185 0.07143834 0 0 Z " fill="#FCD82E" transform="translate(321.5625,350.9375)"/>
<path d="M0 0 C0.98608749 0.00636726 0.98608749 0.00636726 1.99209595 0.01286316 C4.07068641 0.02951898 6.14827024 0.06714255 8.2265625 0.10546875 C9.64451714 0.1205327 11.06248714 0.1342181 12.48046875 0.14648438 C15.9378214 0.17937837 19.39459353 0.2310671 22.8515625 0.29296875 C22.13777293 3.94811005 21.28380997 7.5157279 20.2890625 11.10546875 C20.01964844 12.08128906 19.75023437 13.05710938 19.47265625 14.0625 C19.26769531 14.79855469 19.06273437 15.53460938 18.8515625 16.29296875 C18.5215625 16.29296875 18.1915625 16.29296875 17.8515625 16.29296875 C17.66812009 10.97313882 18.09509549 7.36788209 19.8515625 2.29296875 C15.45522146 2.40302267 11.05972271 2.53361337 6.6640625 2.66796875 C5.41818359 2.69890625 4.17230469 2.72984375 2.88867188 2.76171875 C1.68662109 2.80039063 0.48457031 2.8390625 -0.75390625 2.87890625 C-1.85887451 2.91032715 -2.96384277 2.94174805 -4.10229492 2.97412109 C-7.21287931 3.29971404 -9.4247085 3.75139778 -12.1484375 5.29296875 C-13.53916056 9.36141714 -13.2657612 13.54262006 -13.23022461 17.79003906 C-13.22715805 18.64584061 -13.22409149 19.50164215 -13.22093201 20.38337708 C-13.21378396 22.24019558 -13.20439761 24.09700651 -13.19303703 25.95380402 C-13.17562944 28.89675905 -13.16534134 31.83965963 -13.15711975 34.78265381 C-13.132686 43.1499141 -13.09719307 51.51710126 -13.05249023 59.88427734 C-13.02563305 65.00468206 -13.00863764 70.12504419 -12.99762154 75.24550629 C-12.99143143 77.1926709 -12.9814509 79.13982743 -12.96754265 81.08695221 C-12.94821834 83.81746241 -12.94141508 86.54775068 -12.93725586 89.27832031 C-12.92849426 90.07548965 -12.91973267 90.872659 -12.91070557 91.69398499 C-12.91200974 92.44806137 -12.9133139 93.20213776 -12.91465759 93.97906494 C-12.91151519 94.62281193 -12.90837278 95.26655891 -12.90513515 95.92981339 C-13.26711066 99.44562147 -14.29122132 102.86410405 -15.1484375 106.29296875 C1.3515625 106.29296875 17.8515625 106.29296875 34.8515625 106.29296875 C34.8515625 106.62296875 34.8515625 106.95296875 34.8515625 107.29296875 C18.0215625 107.29296875 1.1915625 107.29296875 -16.1484375 107.29296875 C-16.26876393 83.07616098 -16.26876393 83.07616098 -16.29492188 72.75 C-16.31285221 65.7051719 -16.33405955 58.66046082 -16.37475586 51.61572266 C-16.4073622 45.93582502 -16.42529333 40.25605289 -16.43306923 34.57606888 C-16.43861041 32.40954233 -16.44943095 30.24302262 -16.46562767 28.07654953 C-16.48741855 25.04095386 -16.49040369 22.0058762 -16.48901367 18.97021484 C-16.4997995 18.07541412 -16.51058533 17.1806134 -16.521698 16.25869751 C-16.49663029 11.19630688 -16.0140497 7.65425907 -13.1484375 3.29296875 C-8.75853331 0.31904915 -5.23015442 -0.06705326 0 0 Z " fill="#CE8E47" transform="translate(153.1484375,220.70703125)"/>
<path d="M0 0 C0.66 0.33 1.32 0.66 2 1 C1.350704 1.68966701 0.701408 2.37933401 0.03243637 3.08990002 C-2.40219051 6.57586777 -2.50551103 8.34857521 -2.51898193 12.56159973 C-2.52648319 13.20698958 -2.53398444 13.85237942 -2.541713 14.51732653 C-2.56195238 16.67179315 -2.55389577 18.82520356 -2.54589844 20.97973633 C-2.55463558 22.52726276 -2.56512186 24.07478016 -2.57722473 25.62228394 C-2.60508842 29.8182069 -2.60848934 34.01383515 -2.60750484 38.2098372 C-2.61063364 42.59680169 -2.63625114 46.98363339 -2.65948486 51.37052917 C-2.70005099 59.67540523 -2.720387 67.98020275 -2.73345876 76.28516263 C-2.74932673 85.7410337 -2.7877415 95.1967711 -2.82805204 104.65256464 C-2.91045936 124.1016675 -2.96454626 143.55075773 -3 163 C-3.33 163 -3.66 163 -4 163 C-4.09336266 142.19044679 -4.16393958 121.38092802 -4.20724869 100.571208 C-4.22789066 90.90929865 -4.2560424 81.24751929 -4.30175781 71.58569336 C-4.34157563 63.16630748 -4.36742091 54.74701572 -4.37635398 46.32753831 C-4.38157733 41.867753 -4.39388777 37.40823699 -4.42292023 32.94853783 C-4.45000964 28.7534426 -4.45845823 24.55872838 -4.45243073 20.363554 C-4.45353388 18.82157574 -4.46152647 17.27958513 -4.4768219 15.73768234 C-4.4966499 13.63630997 -4.49196733 11.5363864 -4.48101807 9.4349823 C-4.48470524 8.25785266 -4.48839241 7.08072302 -4.49219131 5.86792278 C-4 3 -4 3 -1.96993637 1.09781361 C-1.31985737 0.73553512 -0.66977837 0.37325663 0 0 Z " fill="#D8DCDF" transform="translate(69,162)"/>
<path d="M0 0 C4.13716749 1.59121826 7.41835502 4.43151462 10 8 C10.16402311 11.44448538 9.26520938 12.65248426 7.1875 15.375 C5 17 5 17 3.1015625 16.80859375 C0.56385527 15.83218967 -0.87705258 14.59035041 -2.8125 12.6875 C-3.43769531 12.09324219 -4.06289063 11.49898438 -4.70703125 10.88671875 C-6 9 -6 9 -5.859375 6.94140625 C-4.55383553 3.9920739 -2.3424062 2.1622211 0 0 Z " fill="#85919B" transform="translate(376,342)"/>
<path d="M0 0 C0 0.66 0 1.32 0 2 C-0.99 2.33 -1.98 2.66 -3 3 C-3 3.66 -3 4.32 -3 5 C-2.01 5 -1.02 5 0 5 C0 5.99 0 6.98 0 8 C0.37125 7.484375 0.7425 6.96875 1.125 6.4375 C3 5 3 5 6.1875 5.3125 C7.115625 5.539375 8.04375 5.76625 9 6 C9 5.34 9 4.68 9 4 C17.03571429 1.72321429 17.03571429 1.72321429 21 3 C19.51113281 3.51046875 19.51113281 3.51046875 17.9921875 4.03125 C8.34554212 7.43861707 -0.29318534 11.63986722 -9 17 C-9.33 15.02 -9.66 13.04 -10 11 C-12.97 10.505 -12.97 10.505 -16 10 C-13.19680829 7.00123678 -10.40565083 4.83677273 -6.875 2.75 C-6.00617188 2.22921875 -5.13734375 1.7084375 -4.2421875 1.171875 C-2 0 -2 0 0 0 Z " fill="#EACA34" transform="translate(242,169)"/>
<path d="M0 0 C0.33 0 0.66 0 1 0 C1 1.98 1 3.96 1 6 C1.66 6.33 2.32 6.66 3 7 C2.67 7.66 2.34 8.32 2 9 C2.99 9 3.98 9 5 9 C5.33 9.99 5.66 10.98 6 12 C6.66 12 7.32 12 8 12 C7.67 11.01 7.34 10.02 7 9 C8.32 8.34 9.64 7.68 11 7 C10.34 7 9.68 7 9 7 C9.33 6.01 9.66 5.02 10 4 C12.560881 7.24640915 14.62476717 10.66940716 16.6875 14.25 C17.31011719 15.32765625 17.93273437 16.4053125 18.57421875 17.515625 C19.27998047 18.74539063 19.27998047 18.74539063 20 20 C19.34 20.33 18.68 20.66 18 21 C17.67 20.34 17.34 19.68 17 19 C14.67843403 18.59270772 12.3431213 18.25561323 10 18 C9.67 18.66 9.34 19.32 9 20 C9.66 20 10.32 20 11 20 C11.33 22.31 11.66 24.62 12 27 C5.93052912 19.68722341 0.41354842 11.54145185 -1 2 C-0.67 1.34 -0.34 0.68 0 0 Z " fill="#ECCB32" transform="translate(192,294)"/>
<path d="M0 0 C0.33 0.66 0.66 1.32 1 2 C0.505 2.94875 0.01 3.8975 -0.5 4.875 C-2.21401852 7.77276596 -2.21401852 7.77276596 -1.8125 10.3125 C-1.11752422 12.19618462 -1.11752422 12.19618462 1 13 C0.7834375 13.8353125 0.7834375 13.8353125 0.5625 14.6875 C-0.02769128 17.11384195 -0.523429 19.54906345 -1 22 C-3.64 20.35 -6.28 18.7 -9 17 C-9.1546875 18.918125 -9.1546875 18.918125 -9.3125 20.875 C-9.48828125 23.0546875 -9.48828125 23.0546875 -10 25 C-10.99 25.66 -11.98 26.32 -13 27 C-13.79798218 29.41607417 -13.79798218 29.41607417 -14.1875 32.125 C-14.42533203 33.49011719 -14.42533203 33.49011719 -14.66796875 34.8828125 C-14.77753906 35.58148438 -14.88710937 36.28015625 -15 37 C-16.55658073 34.59488609 -17.06275732 33.42378063 -16.63671875 30.546875 C-12.9312979 19.62884486 -7.4896543 8.83438769 0 0 Z " fill="#F9D730" transform="translate(206,198)"/>
<path d="M0 0 C0 3 0 3 -1 5 C-3.62616876 6.17486497 -6.27044585 7.09014862 -9 8 C-9 8.66 -9 9.32 -9 10 C-10.98 10 -12.96 10 -15 10 C-15 10.66 -15 11.32 -15 12 C-15.99 12 -16.98 12 -18 12 C-18 11.01 -18 10.02 -18 9 C-19.32 9.33 -20.64 9.66 -22 10 C-21.67 8.68 -21.34 7.36 -21 6 C-20.01 6 -19.02 6 -18 6 C-18 5.34 -18 4.68 -18 4 C-15.75438718 3.13237686 -13.50473745 2.2807897 -11.25 1.4375 C-10.61578125 1.19064453 -9.9815625 0.94378906 -9.328125 0.68945312 C-5.88990821 -0.58197079 -3.47831118 -1.46686355 0 0 Z " fill="#FDD92C" transform="translate(260,165)"/>
<path d="M0 0 C0 2.31 0 4.62 0 7 C-0.66 7 -1.32 7 -2 7 C-1.938125 8.11375 -1.87625 9.2275 -1.8125 10.375 C-1.874375 11.57125 -1.93625 12.7675 -2 14 C-2.99 14.66 -3.98 15.32 -5 16 C-5.72382467 18.05925139 -5.72382467 18.05925139 -6 20 C-7.32 20 -8.64 20 -10 20 C-11.1577506 16.52674819 -11.06866652 13.63932552 -11 10 C-10.01 9.67 -9.02 9.34 -8 9 C-8 7.35 -8 5.7 -8 4 C-7.34 4 -6.68 4 -6 4 C-5.67 3.01 -5.34 2.02 -5 1 C-5 1.99 -5 2.98 -5 4 C-4.34 4 -3.68 4 -3 4 C-3 3.01 -3 2.02 -3 1 C-1 0 -1 0 0 0 Z " fill="#FCD92C" transform="translate(385,290)"/>
<path d="M0 0 C0.33 1.65 0.66 3.3 1 5 C1.66 5 2.32 5 3 5 C2.67 6.98 2.34 8.96 2 11 C2.66 11 3.32 11 4 11 C4 12.65 4 14.3 4 16 C0 16 0 16 -1.66796875 14.71484375 C-5.31510015 10.44891885 -6.76998507 7.63536569 -7 2 C-7.99 2.33 -8.98 2.66 -10 3 C-10 2.01 -10 1.02 -10 0 C-6.33694766 -0.74926071 -3.57644848 -1.2380014 0 0 Z " fill="#F9D630" transform="translate(362,188)"/>
<path d="M0 0 C5.00570159 3.7895015 8.33666977 7.86067451 11.8125 13.0625 C12.30169922 13.76955078 12.79089844 14.47660156 13.29492188 15.20507812 C15.51383764 18.47360549 17.20985852 21.08390523 18 25 C11.42857143 19.85714286 11.42857143 19.85714286 10 16 C9.01 16.33 8.02 16.66 7 17 C6.34 16.67 5.68 16.34 5 16 C4.34 17.32 3.68 18.64 3 20 C2.34 18.68 1.68 17.36 1 16 C1.99 16 2.98 16 4 16 C4 14.35 4 12.7 4 11 C3.34 11 2.68 11 2 11 C2.33 9.02 2.66 7.04 3 5 C2.01 5.33 1.02 5.66 0 6 C0 4.02 0 2.04 0 0 Z " fill="#EACB32" transform="translate(362,188)"/>
<path d="M0 0 C2 2 2 2 3 5 C3.804375 5.721875 4.60875 6.44375 5.4375 7.1875 C8.75249216 10.82590603 9.21065451 13.18499252 10 18 C9.67 18.66 9.34 19.32 9 20 C6.9375 20.625 6.9375 20.625 5 21 C5 20.01 5 19.02 5 18 C4.34 18 3.68 18 3 18 C4 15 4 15 5 13 C4.01 12.01 3.02 11.02 2 10 C1.01 10.33 0.02 10.66 -1 11 C-1 10.01 -1 9.02 -1 8 C-2.65 7.67 -4.3 7.34 -6 7 C-5.67 5.02 -5.34 3.04 -5 1 C-2.625 0.375 -2.625 0.375 0 0 Z " fill="#FBD82B" transform="translate(372,203)"/>
<path d="M0 0 C1.32 0.33 2.64 0.66 4 1 C4 1.99 4 2.98 4 4 C13.57 4.33 23.14 4.66 33 5 C33 4.34 33 3.68 33 3 C35.31 3.33 37.62 3.66 40 4 C28.9091975 10.93175156 8.18064199 7.65916473 -3.8125 5 C-6.5524172 4.36705207 -9.27544413 3.6974863 -12 3 C-12 2.67 -12 2.34 -12 2 C-8.37 2 -4.74 2 -1 2 C-0.67 1.34 -0.34 0.68 0 0 Z " fill="#E4C63E" transform="translate(270,358)"/>
<path d="M0 0 C0 1.65 0 3.3 0 5 C0.66 5 1.32 5 2 5 C2 5.99 2 6.98 2 8 C1.34 8 0.68 8 0 8 C-0.0825 9.051875 -0.165 10.10375 -0.25 11.1875 C-1.05320762 15.27047209 -2.19334709 17.0122727 -5 20 C-6 15.125 -6 15.125 -6 14 C-6.65438441 11.99594773 -7.32060826 9.99571323 -8 8 C-7.34 8 -6.68 8 -6 8 C-5.896875 7.236875 -5.79375 6.47375 -5.6875 5.6875 C-4.83195622 2.34310158 -3.70341243 0 0 0 Z " fill="#F4D235" transform="translate(211,197)"/>
<path d="M0 0 C0.680625 0.7425 1.36125 1.485 2.0625 2.25 C4.29883058 3.15215609 6.55837886 3.83003293 8.8671875 4.5234375 C11.52692196 5.40370549 13.74834937 6.68234957 16.0625 8.25 C15.7325 9.57 15.4025 10.89 15.0625 12.25 C12.48715184 10.96567053 9.91666256 9.67194927 7.34765625 8.375 C5.94013166 7.66661204 4.53257877 6.95828029 3.125 6.25 C2.42181641 5.89421875 1.71863281 5.5384375 0.99414062 5.171875 C-2.59917746 3.36679675 -6.16789265 1.6663691 -9.9375 0.25 C-9.9375 -0.08 -9.9375 -0.41 -9.9375 -0.75 C-2.48135965 -2.24122807 -2.48135965 -2.24122807 0 0 Z M17.0625 2.25 C18.74746298 3.21885372 20.41428756 4.21986723 22.0625 5.25 C22.0625 5.58 22.0625 5.91 22.0625 6.25 C19.7525 6.58 17.4425 6.91 15.0625 7.25 C15.0625 6.59 15.0625 5.93 15.0625 5.25 C15.7225 5.25 16.3825 5.25 17.0625 5.25 C17.0625 4.26 17.0625 3.27 17.0625 2.25 Z " fill="#EECE37" transform="translate(329.9375,173.75)"/>
<path d="M0 0 C3.62528568 -0.20140476 5.86501708 0.14223235 9 2 C9 2.66 9 3.32 9 4 C9.66 4 10.32 4 11 4 C11.33 7.3 11.66 10.6 12 14 C10.35 13.67 8.7 13.34 7 13 C7 12.34 7 11.68 7 11 C5.68 10.67 4.36 10.34 3 10 C2.67 7.69 2.34 5.38 2 3 C1.34 3 0.68 3 0 3 C0 2.01 0 1.02 0 0 Z " fill="#FDD82D" transform="translate(201,311)"/>
<path d="M0 0 C2.0625 0.4375 2.0625 0.4375 4 1 C6.29612756 10.41002278 6.29612756 10.41002278 6 15 C5.01 15 4.02 15 3 15 C3 14.34 3 13.68 3 13 C1.68 13.33 0.36 13.66 -1 14 C-0.67 11.36 -0.34 8.72 0 6 C-0.99 6.66 -1.98 7.32 -3 8 C-3 7.34 -3 6.68 -3 6 C-3.66 5.67 -4.32 5.34 -5 5 C-4.67 4.34 -4.34 3.68 -4 3 C-3.34 3 -2.68 3 -2 3 C-1.67 2.34 -1.34 1.68 -1 1 C-0.67 0.67 -0.34 0.34 0 0 Z " fill="#FCD82F" transform="translate(382,224)"/>
<path d="M0 0 C9.9 0 19.8 0 30 0 C29.2638735 3.68063252 28.43722998 7.20477877 27.4375 10.8125 C27.16808594 11.78832031 26.89867187 12.76414063 26.62109375 13.76953125 C26.41613281 14.50558594 26.21117187 15.24164063 26 16 C25.67 16 25.34 16 25 16 C24.80392384 10.31379141 25.10391093 7.6882672 27 2 C18.09 2 9.18 2 0 2 C0 1.34 0 0.68 0 0 Z " fill="#B0793D" transform="translate(146,221)"/>
<path d="M0 0 C0 0.33 0 0.66 0 1 C-0.9286084 0.99476318 -1.8572168 0.98952637 -2.81396484 0.98413086 C-6.25423805 0.96710407 -9.69446659 0.95455727 -13.13476562 0.94506836 C-14.62468166 0.94003486 -16.11459274 0.93320758 -17.60449219 0.92456055 C-19.74415304 0.91245195 -21.88374868 0.90676193 -24.0234375 0.90234375 C-25.95582275 0.89448853 -25.95582275 0.89448853 -27.92724609 0.88647461 C-30.91405228 0.78457369 -30.91405228 0.78457369 -33 2 C-35.04055005 2.07065617 -37.08334257 2.08421976 -39.125 2.0625 C-40.22070312 2.05347656 -41.31640625 2.04445312 -42.4453125 2.03515625 C-43.70988281 2.01775391 -43.70988281 2.01775391 -45 2 C-33.89429709 -5.40380194 -12.44863354 -3.07102854 0 0 Z " fill="#C3AB35" transform="translate(309,159)"/>
<path d="M0 0 C2.4375 0.8125 2.4375 0.8125 5 2 C5.495 3.485 5.495 3.485 6 5 C-6.54 4.01 -19.08 3.02 -32 2 C-32 1.67 -32 1.34 -32 1 C-9.40510967 0.79361047 -9.40510967 0.79361047 1 2 C0.505 1.01 0.505 1.01 0 0 Z " fill="#2C0B09" transform="translate(313,141)"/>
<path d="M0 0 C8.55996391 12.83994587 7.70147066 32.23242383 7 47 C6.67 47 6.34 47 6 47 C5.98018066 46.40985107 5.96036133 45.81970215 5.93994141 45.21166992 C5.84465341 42.53649904 5.73499061 39.86210502 5.625 37.1875 C5.5940625 36.25873047 5.563125 35.32996094 5.53125 34.37304688 C5.49257813 33.48037109 5.45390625 32.58769531 5.4140625 31.66796875 C5.3826416 30.84578857 5.3512207 30.0236084 5.31884766 29.17651367 C5.11626378 26.71047063 5.11626378 26.71047063 3 24 C2.75319969 21.92463373 2.59710383 19.83773236 2.5 17.75 C2.19787124 12.81156815 1.4954471 8.68573424 0 4 C0 2.68 0 1.36 0 0 Z " fill="#A6912B" transform="translate(386,225)"/>
<path d="M0 0 C2.475 0.495 2.475 0.495 5 1 C5 1.66 5 2.32 5 3 C9.29221231 2.89053657 13.5835149 2.75981105 17.875 2.625 C19.09832031 2.5940625 20.32164062 2.563125 21.58203125 2.53125 C22.74863281 2.49257812 23.91523438 2.45390625 25.1171875 2.4140625 C26.73536377 2.36693115 26.73536377 2.36693115 28.38623047 2.31884766 C31.15761654 2.25323678 31.15761654 2.25323678 33 0 C34.98 1.65 36.96 3.3 39 5 C36.00042141 6.49978929 32.99708393 5.97091622 29.7265625 5.80078125 C29.00640961 5.76446091 28.28625671 5.72814056 27.54428101 5.6907196 C26.01925548 5.61061857 24.49440222 5.52717911 22.96972656 5.44067383 C20.64178282 5.31341743 18.31359217 5.21215897 15.984375 5.11132812 C14.50251508 5.03025808 13.02073961 4.94762643 11.5390625 4.86328125 C10.4966893 4.82392204 10.4966893 4.82392204 9.43325806 4.7837677 C5.9656719 4.55592583 4.23657511 4.19663174 1.52880859 1.94604492 C0.77204834 0.98275269 0.77204834 0.98275269 0 0 Z " fill="#D6665B" transform="translate(276,138)"/>
<path d="M0 0 C1.98 0.495 1.98 0.495 4 1 C3.41196203 4.02419525 2.77321882 7.01758453 2 10 C3.7015625 10.6496875 3.7015625 10.6496875 5.4375 11.3125 C6.613125 11.869375 7.78875 12.42625 9 13 C9.33 13.99 9.66 14.98 10 16 C10.99 16 11.98 16 13 16 C12.67 16.99 12.34 17.98 12 19 C11.39671875 18.65066406 10.7934375 18.30132812 10.171875 17.94140625 C9.37265625 17.48636719 8.5734375 17.03132813 7.75 16.5625 C6.96109375 16.11003906 6.1721875 15.65757812 5.359375 15.19140625 C3.21166532 14.10688398 1.34794939 13.46851284 -1 13 C-1 10.36 -1 7.72 -1 5 C-0.34 5 0.32 5 1 5 C0.67 3.35 0.34 1.7 0 0 Z " fill="#F6B713" transform="translate(298,205)"/>
<path d="M0 0 C0.6875 2.0625 0.6875 2.0625 1 4 C0.0409375 4.37125 0.0409375 4.37125 -0.9375 4.75 C-3.18741541 5.81562433 -3.18741541 5.81562433 -3.75 8.125 C-3.8325 8.74375 -3.915 9.3625 -4 10 C-4.99 8.68 -5.98 7.36 -7 6 C-8.65 6.33 -10.3 6.66 -12 7 C-11.07038578 5.84775972 -10.1309875 4.70340824 -9.1875 3.5625 C-8.66542969 2.92441406 -8.14335937 2.28632813 -7.60546875 1.62890625 C-4.95932601 -1.05586631 -3.53585792 -1.17861931 0 0 Z " fill="#FCD92D" transform="translate(360,329)"/>
<path d="M0 0 C1.45833333 0.72916667 2.91666667 1.45833333 4.375 2.1875 C4.375 3.5075 4.375 4.8275 4.375 6.1875 C3.715 6.1875 3.055 6.1875 2.375 6.1875 C2.375 6.8475 2.375 7.5075 2.375 8.1875 C-0.55040704 7.56062706 -3.1085249 6.83622507 -5.625 5.1875 C-6.375 3.0625 -6.375 3.0625 -6.625 1.1875 C-3.97805312 -0.57713125 -3.11657752 -0.96465495 0 0 Z " fill="#F9D62F" transform="translate(342.625,172.8125)"/>
<path d="M0 0 C4.08931682 -0.05001046 8.17851141 -0.08600357 12.26806641 -0.10986328 C13.65481676 -0.11982603 15.04154665 -0.13340118 16.42822266 -0.15087891 C24.49040344 -0.24983708 32.15724803 -0.07347869 40 2 C40 2.66 40 3.32 40 4 C40.99 4.33 41.98 4.66 43 5 C40.17778212 6.41110894 38.79744896 5.52254327 35.8125 4.625 C27.61942004 2.17280544 19.55594129 1.75910144 11.0625 1.4375 C9.99708984 1.39431641 8.93167969 1.35113281 7.83398438 1.30664062 C5.22276557 1.20125511 2.61146254 1.09912912 0 1 C0 0.67 0 0.34 0 0 Z " fill="#E0C643" transform="translate(276,167)"/>
<path d="M0 0 C1.65 0 3.3 0 5 0 C5 0.66 5 1.32 5 2 C5.66 2 6.32 2 7 2 C7.33 2.99 7.66 3.98 8 5 C6.68 5.33 5.36 5.66 4 6 C4.495 6.45375 4.99 6.9075 5.5 7.375 C7 9 7 9 7 11 C5.02 10.34 3.04 9.68 1 9 C1 8.34 1 7.68 1 7 C0.34 7 -0.32 7 -1 7 C-1.33 5.35 -1.66 3.7 -2 2 C-1.34 2 -0.68 2 0 2 C0 1.34 0 0.68 0 0 Z " fill="#FCD82B" transform="translate(223,333)"/>
<path d="M0 0 C0.66 0.66 1.32 1.32 2 2 C1.67 2.66 1.34 3.32 1 4 C0.87798558 7.23338205 0.83775219 10.22413174 1.50170898 13.39916992 C2.0195141 16.10185387 2.11373358 18.55155723 2.09765625 21.30078125 C2.09443359 22.27724609 2.09121094 23.25371094 2.08789062 24.25976562 C2.07951172 25.26716797 2.07113281 26.27457031 2.0625 27.3125 C2.05798828 28.33923828 2.05347656 29.36597656 2.04882812 30.42382812 C2.03708184 32.94927882 2.02065565 35.47460905 2 38 C1.67 38 1.34 38 1 38 C0.96132813 36.25589844 0.96132813 36.25589844 0.921875 34.4765625 C0.55064612 22.90517564 -1.12187704 12.2045996 -4 1 C-3.01 1.33 -2.02 1.66 -1 2 C-0.67 1.34 -0.34 0.68 0 0 Z " fill="#E9C93F" transform="translate(381,229)"/>
<path d="M0 0 C0.66 0 1.32 0 2 0 C1.48517081 5.852795 0.54642808 11.3297637 -1 17 C-0.34 17 0.32 17 1 17 C1 18.65 1 20.3 1 22 C-0.65 22 -2.3 22 -4 22 C-4 23.65 -4 25.3 -4 27 C-4.99 27.33 -5.98 27.66 -7 28 C-6.5625 26.54166667 -6.125 25.08333333 -5.6875 23.625 C-5.41550781 22.71234375 -5.14351563 21.7996875 -4.86328125 20.859375 C-4.31167316 19.03232919 -3.747756 17.20892493 -3.16796875 15.390625 C-1.54178953 10.2317116 -0.49899503 5.38914637 0 0 Z " fill="#E6CA3F" transform="translate(381,272)"/>
<path d="M0 0 C0.66 0 1.32 0 2 0 C1.84144531 0.85980469 1.68289063 1.71960938 1.51953125 2.60546875 C0.223014 11.07669798 0.01583804 18.65837274 4.22265625 26.29296875 C4.47917969 26.85628906 4.73570312 27.41960937 5 28 C4.67 28.66 4.34 29.32 4 30 C-1.79831993 23.37334865 -2.3311078 16.49167121 -2.30078125 8.05078125 C-2.00034526 5.00350194 -1.28623363 2.76207142 0 0 Z " fill="#C8971A" transform="translate(261,230)"/>
<path d="M0 0 C1.32 0.33 2.64 0.66 4 1 C4.33 1.66 4.66 2.32 5 3 C5.66 2.67 6.32 2.34 7 2 C8.32 3.32 9.64 4.64 11 6 C10.67 6.99 10.34 7.98 10 9 C8.35 9.33 6.7 9.66 5 10 C3.35 6.7 1.7 3.4 0 0 Z " fill="#FDD832" transform="translate(367,210)"/>
<path d="M0 0 C1.65 0 3.3 0 5 0 C5.12117188 0.69867188 5.24234375 1.39734375 5.3671875 2.1171875 C5.53476562 3.02726562 5.70234375 3.93734375 5.875 4.875 C6.03742188 5.77992188 6.19984375 6.68484375 6.3671875 7.6171875 C6.83044703 10.16505988 6.83044703 10.16505988 9 12 C12.95158471 12.34361606 15.60535554 12.08901197 19 10 C18.67 11.32 18.34 12.64 18 14 C14.04 14 10.08 14 6 14 C2.57142857 6.71428571 2.57142857 6.71428571 3 2 C2.01 1.67 1.02 1.34 0 1 C0 0.67 0 0.34 0 0 Z " fill="#D9A714" transform="translate(276,305)"/>
<path d="M0 0 C1.14726562 0.01546875 2.29453125 0.0309375 3.4765625 0.046875 C6.375 0.25 6.375 0.25 8.375 1.25 C8.375 1.91 8.375 2.57 8.375 3.25 C8.99375 3.518125 9.6125 3.78625 10.25 4.0625 C12.375 5.25 12.375 5.25 14.375 8.25 C13.385 8.745 13.385 8.745 12.375 9.25 C12.375 8.59 12.375 7.93 12.375 7.25 C10.725 6.59 9.075 5.93 7.375 5.25 C7.375 4.59 7.375 3.93 7.375 3.25 C1.58271435 1.31923812 -2.99997146 2.28778074 -8.625 4.25 C-9.285 3.92 -9.945 3.59 -10.625 3.25 C-7.16913763 0.01544901 -4.64736005 -0.10490655 0 0 Z " fill="#A47A0B" transform="translate(289.625,231.75)"/>
<path d="M0 0 C0 1.65 0 3.3 0 5 C0.66 5 1.32 5 2 5 C2 5.99 2 6.98 2 8 C1.34 8 0.68 8 0 8 C-0.33 8.66 -0.66 9.32 -1 10 C-1.66 9.34 -2.32 8.68 -3 8 C-3.66 8.66 -4.32 9.32 -5 10 C-5.99 9.34 -6.98 8.68 -8 8 C-7.34 8 -6.68 8 -6 8 C-5.896875 7.236875 -5.79375 6.47375 -5.6875 5.6875 C-4.83195622 2.34310158 -3.70341243 0 0 0 Z " fill="#FCDA2C" transform="translate(211,197)"/>
<path d="M0 0 C6.18160604 0.53753096 11.326858 2.54582388 17 5 C13.25 6.125 13.25 6.125 11 5 C8.95944995 4.92934383 6.91665743 4.91578024 4.875 4.9375 C3.77929688 4.94652344 2.68359375 4.95554688 1.5546875 4.96484375 C0.29011719 4.98224609 0.29011719 4.98224609 -1 5 C-0.67 3.35 -0.34 1.7 0 0 Z " fill="#E9CC3C" transform="translate(314,161)"/>
<path d="M0 0 C2.97 0 5.94 0 9 0 C9.66 1.32 10.32 2.64 11 4 C12.95021083 5.22527948 12.95021083 5.22527948 15 6 C15.66 6.33 16.32 6.66 17 7 C18.87056791 7.2275015 20.74685958 7.40962811 22.625 7.5625 C24.12933594 7.68818359 24.12933594 7.68818359 25.6640625 7.81640625 C26.43492187 7.87699219 27.20578125 7.93757813 28 8 C28 8.33 28 8.66 28 9 C26.10489301 9.08160748 24.20875496 9.13946459 22.3125 9.1875 C20.72888672 9.23970703 20.72888672 9.23970703 19.11328125 9.29296875 C14.48722726 8.85764372 11.95256664 6.8548675 8.5625 3.8125 C5.46684625 1.62289125 3.71043048 1.65484368 0 2 C0 1.34 0 0.68 0 0 Z " fill="#DAA921" transform="translate(266,281)"/>
<path d="M0 0 C0.99 0 1.98 0 3 0 C3 0.66 3 1.32 3 2 C2.01 2.495 2.01 2.495 1 3 C0.34444881 5.52733235 0.34444881 5.52733235 0 8 C-0.33 7.34 -0.66 6.68 -1 6 C-2.98 6.99 -2.98 6.99 -5 8 C-5 7.34 -5 6.68 -5 6 C-5.99 5.67 -6.98 5.34 -8 5 C-7.67 3.68 -7.34 2.36 -7 1 C-4.69 1.33 -2.38 1.66 0 2 C0 1.34 0 0.68 0 0 Z M-5 4 C-4 6 -4 6 -4 6 Z " fill="#FCD92D" transform="translate(348,338)"/>
<path d="M0 0 C0.33 1.32 0.66 2.64 1 4 C0.34 4 -0.32 4 -1 4 C-1.33 5.65 -1.66 7.3 -2 9 C-2.99 9.33 -3.98 9.66 -5 10 C-5.35412344 11.32796291 -5.68521554 12.66216607 -6 14 C-8.18896282 16.84565166 -10.65851561 17.82596494 -14 19 C-13.175 18.0925 -12.35 17.185 -11.5 16.25 C-7.14755542 11.19991478 -3.61517748 5.58792661 0 0 Z " fill="#3B2502" transform="translate(356,299)"/>
<path d="M0 0 C0.99 0.33 1.98 0.66 3 1 C2.62875 1.5775 2.2575 2.155 1.875 2.75 C0.70751964 4.97761146 0.70751964 4.97761146 1.875 7.0625 C2.431875 8.0215625 2.431875 8.0215625 3 9 C3 9.99 3 10.98 3 12 C3.66 12.33 4.32 12.66 5 13 C1.51876869 13 1.13479364 12.58848696 -1.25 10.25 C-1.79140625 9.73953125 -2.3328125 9.2290625 -2.890625 8.703125 C-4 7 -4 7 -3.76953125 4.90625 C-2.88293572 2.71001335 -1.77423421 1.54281236 0 0 Z " fill="#A7BBBF" transform="translate(410,394)"/>
<path d="M0 0 C1.60156595 4.00391487 0.4087561 7.07031192 -1 11 C-1.99 11.495 -1.99 11.495 -3 12 C-3.68931344 14.34907875 -3.68931344 14.34907875 -4.125 17.0625 C-4.29257813 17.98160156 -4.46015625 18.90070313 -4.6328125 19.84765625 C-4.75398437 20.55792969 -4.87515625 21.26820313 -5 22 C-6.10546875 20.3671875 -6.10546875 20.3671875 -7 18 C-6.42578125 15.1953125 -6.42578125 15.1953125 -5.3125 12.125 C-4.93222656 11.07054687 -4.55195313 10.01609375 -4.16015625 8.9296875 C-2.93186769 5.82794872 -1.61875503 2.91375905 0 0 Z " fill="#D2B635" transform="translate(196,213)"/>
<path d="M0 0 C-1.32338632 0.68620031 -2.65949948 1.34786461 -4 2 C-5.03640625 2.556875 -5.03640625 2.556875 -6.09375 3.125 C-10.18344621 4.35630639 -13.63716473 3.73397597 -17.8125 3.125 C-18.99489258 2.96837891 -18.99489258 2.96837891 -20.20117188 2.80859375 C-22.13569594 2.55065721 -24.06809894 2.27689872 -26 2 C-26 1.67 -26 1.34 -26 1 C-23.16681141 0.83049299 -20.33349012 0.66432466 -17.5 0.5 C-16.70851563 0.45230469 -15.91703125 0.40460938 -15.1015625 0.35546875 C-10.057819 0.06607363 -5.05202732 -0.04634887 0 0 Z " fill="#EFCF3D" transform="translate(308,354)"/>
<path d="M0 0 C0.804375 0.61875 1.60875 1.2375 2.4375 1.875 C9.30371581 6.41504456 18.02284793 6.43339854 26 7 C26 7.33 26 7.66 26 8 C6.25095472 8.29623568 6.25095472 8.29623568 1 4 C0.1875 1.8125 0.1875 1.8125 0 0 Z " fill="#BE9012" transform="translate(268,262)"/>
<path d="M0 0 C11.22 0 22.44 0 34 0 C34 0.33 34 0.66 34 1 C32.6682373 1.03758423 32.6682373 1.03758423 31.30957031 1.07592773 C28.00703963 1.17121797 24.70467541 1.27044207 21.40234375 1.37231445 C19.97465612 1.41555318 18.54692046 1.45723585 17.11914062 1.49731445 C15.06365504 1.55528602 13.00840872 1.61890175 10.953125 1.68359375 C9.71723633 1.72025146 8.48134766 1.75690918 7.20800781 1.79467773 C4.62812342 1.95979819 2.45644894 2.2464387 0 3 C0 2.01 0 1.02 0 0 Z " fill="#2C1301" transform="translate(142,220)"/>
<path d="M0 0 C0.66 0.33 1.32 0.66 2 1 C0.6875 2.5 0.6875 2.5 -1 4 C-1.99 4 -2.98 4 -4 4 C-4 4.66 -4 5.32 -4 6 C-4.79664063 6.38091797 -4.79664063 6.38091797 -5.609375 6.76953125 C-9.3324172 8.58349524 -12.79762215 10.3313518 -16 13 C-16.66 12.67 -17.32 12.34 -18 12 C-5.51693002 2.69977427 -5.51693002 2.69977427 0 0 Z " fill="#C29313" transform="translate(257,189)"/>
<path d="M0 0 C0.8971875 1.051875 0.8971875 1.051875 1.8125 2.125 C4.45434541 2.92181318 4.45434541 2.92181318 6.8125 3.125 C6.8125 4.445 6.8125 5.765 6.8125 7.125 C3.02533842 5.62137741 -0.73995187 4.07012999 -4.5 2.5 C-6.10294922 1.83097656 -6.10294922 1.83097656 -7.73828125 1.1484375 C-8.95064453 0.64183594 -8.95064453 0.64183594 -10.1875 0.125 C-10.1875 -0.205 -10.1875 -0.535 -10.1875 -0.875 C-2.75506757 -2.36148649 -2.75506757 -2.36148649 0 0 Z " fill="#D6BA35" transform="translate(330.1875,173.875)"/>
<path d="M0 0 C2.125 0.375 2.125 0.375 4 1 C2.49392117 5.10088936 0.03811122 6.53509554 -3.625 8.75 C-5.12933594 9.67039062 -5.12933594 9.67039062 -6.6640625 10.609375 C-7.43492188 11.06828125 -8.20578125 11.5271875 -9 12 C-8.34 10.35 -7.68 8.7 -7 7 C-5.68 7 -4.36 7 -3 7 C-3 6.34 -3 5.68 -3 5 C-2.34 5 -1.68 5 -1 5 C-1.33 4.01 -1.66 3.02 -2 2 C-1.34 1.34 -0.68 0.68 0 0 Z " fill="#E9645C" transform="translate(99,116)"/>
<path d="M0 0 C0.66 0 1.32 0 2 0 C2.144375 0.7425 2.28875 1.485 2.4375 2.25 C2.90187492 4.52027739 3.41863569 6.75759479 4 9 C3.34 9 2.68 9 2 9 C1.67 9.66 1.34 10.32 1 11 C-1.51083114 9.74458443 -1.87125446 8.49936512 -3 6 C-2.34 5.67 -1.68 5.34 -1 5 C-0.34444881 2.47266765 -0.34444881 2.47266765 0 0 Z " fill="#FCD92E" transform="translate(216,323)"/>
<path d="M0 0 C1.875 0.625 1.875 0.625 4 2 C5.99369315 6.63342623 6.24232564 10.67843032 6.1875 15.6875 C6.18105469 16.99074219 6.17460937 18.29398437 6.16796875 19.63671875 C6 23 6 23 5 26 C4.34 26 3.68 26 3 26 C3.15984375 25.45988281 3.3196875 24.91976563 3.484375 24.36328125 C5.12341276 16.85102486 4.59308894 9.7550072 1 3 C0.67 2.01 0.34 1.02 0 0 Z " fill="#D6A514" transform="translate(312,264)"/>
<path d="M0 0 C4.40114397 0.50298788 6.71195019 2.08772731 10 5 C9.01 5.99 8.02 6.98 7 8 C5.0625 7.1875 5.0625 7.1875 3 6 C2.67 5.01 2.34 4.02 2 3 C1.34 2.67 0.68 2.34 0 2 C0 1.34 0 0.68 0 0 Z " fill="#ECB10D" transform="translate(320,191)"/>
<path d="M0 0 C1.95143557 1.6296563 2.90331891 2.56976916 3.46875 5.0859375 C3.52970856 9.55115195 3.4585395 11.40872538 0.625 15.0625 C-2 17 -2 17 -4 17 C-4 16.34 -4 15.68 -4 15 C-3.01 15 -2.02 15 -1 15 C0.09506492 11.71480525 0.09960608 9.26336585 0.0625 5.8125 C0.04896484 4.18248047 0.04896484 4.18248047 0.03515625 2.51953125 C0.02355469 1.68808594 0.01195312 0.85664063 0 0 Z " fill="#CF9E1E" transform="translate(298,272)"/>
<path d="M0 0 C11.70615034 7.11389522 11.70615034 7.11389522 16 12 C13.03 11.505 13.03 11.505 10 11 C10 10.01 10 9.02 10 8 C7.03 7.505 7.03 7.505 4 7 C3.896875 6.360625 3.79375 5.72125 3.6875 5.0625 C3.460625 4.381875 3.23375 3.70125 3 3 C2.01 2.67 1.02 2.34 0 2 C0 1.34 0 0.68 0 0 Z " fill="#DB655F" transform="translate(278,116)"/>
<path d="M0 0 C-0.33 1.98 -0.66 3.96 -1 6 C-1.66 6 -2.32 6 -3 6 C-3.66 7.32 -4.32 8.64 -5 10 C-5.99 9.01 -6.98 8.02 -8 7 C-4.13157895 0 -4.13157895 0 0 0 Z " fill="#DDE2E4" transform="translate(144,109)"/>
<path d="M0 0 C4.875 4.625 4.875 4.625 6 8 C5.01 8.495 5.01 8.495 4 9 C3.67 9.99 3.34 10.98 3 12 C1 11 1 11 0.33203125 9.2578125 C0.16058594 8.55398438 -0.01085937 7.85015625 -0.1875 7.125 C-0.36667969 6.42632812 -0.54585937 5.72765625 -0.73046875 5.0078125 C-1 3 -1 3 0 0 Z " fill="#E7CA33" transform="translate(212,315)"/>
<path d="M0 0 C0.33 0 0.66 0 1 0 C1.99 5.94 2.98 11.88 4 18 C2.35 17.01 0.7 16.02 -1 15 C-0.67 10.05 -0.34 5.1 0 0 Z " fill="#B2783A" transform="translate(169,272)"/>
<path d="M0 0 C2.31 0 4.62 0 7 0 C4.52621876 2.47378124 2.43825655 3.03138231 -0.875 4.125 C-1.92429687 4.47820312 -2.97359375 4.83140625 -4.0546875 5.1953125 C-7 6 -7 6 -11 6 C-11 5.34 -11 4.68 -11 4 C-8.69 4 -6.38 4 -4 4 C-4 3.34 -4 2.68 -4 2 C-2.68 2 -1.36 2 0 2 C0 1.34 0 0.68 0 0 Z " fill="#E4AE1D" transform="translate(315,331)"/>
<path d="M0 0 C0.66 0 1.32 0 2 0 C1.9175 0.86625 1.835 1.7325 1.75 2.625 C2.06124828 6.82685182 3.47385334 8.67992153 6 12 C6.5775 12.78375 7.155 13.5675 7.75 14.375 C8.1625 14.91125 8.575 15.4475 9 16 C6.75 15.9375 6.75 15.9375 4 15 C0.10456472 9.8411803 -0.44713862 6.3717253 0 0 Z " fill="#D9A516" transform="translate(261,286)"/>
<path d="M0 0 C0.66 1.32 1.32 2.64 2 4 C1.34 4 0.68 4 0 4 C0 4.66 0 5.32 0 6 C-4.75 7.125 -4.75 7.125 -7 6 C-7 4.68 -7 3.36 -7 2 C-4.525 2.495 -4.525 2.495 -2 3 C-2 2.34 -2 1.68 -2 1 C-1.34 0.67 -0.68 0.34 0 0 Z " fill="#FCDA27" transform="translate(219,191)"/>
<path d="M0 0 C0.66 0.33 1.32 0.66 2 1 C2.25 3.8125 2.25 3.8125 2 7 C0 8.875 0 8.875 -2 10 C-3 9 -3 9 -3.25 6.6875 C-2.95899829 3.55923162 -2.05619793 2.31322267 0 0 Z " fill="#D18B3F" transform="translate(171,289)"/>
<path d="M0 0 C1.051875 0.433125 1.051875 0.433125 2.125 0.875 C5.01683472 2.06453973 5.01683472 2.06453973 8.1875 2.875 C11 4 11 4 12.25 6.0625 C12.4975 6.701875 12.745 7.34125 13 8 C13.66 8.33 14.32 8.66 15 9 C14.67 9.66 14.34 10.32 14 11 C11.6638026 9.35810616 9.33099647 7.7117475 7 6.0625 C6.33226562 5.59392578 5.66453125 5.12535156 4.9765625 4.64257812 C3.29970233 3.45337627 1.64761213 2.22940446 0 1 C0 0.67 0 0.34 0 0 Z " fill="#CA5C53" transform="translate(181,69)"/>
<path d="M0 0 C-0.66 1.65 -1.32 3.3 -2 5 C-2.66 4.67 -3.32 4.34 -4 4 C-4.721875 4.804375 -5.44375 5.60875 -6.1875 6.4375 C-9.02515689 9.02292072 -10.27166147 9.68042813 -14 10 C-4.57142857 0 -4.57142857 0 0 0 Z " fill="#C7CACC" transform="translate(86,151)"/>
<path d="M0 0 C1.32 0 2.64 0 4 0 C4 0.66 4 1.32 4 2 C4.7425 2.28875 5.485 2.5775 6.25 2.875 C8.56739797 3.82302644 10.77917115 4.84845911 13 6 C13 6.66 13 7.32 13 8 C13.66 8.33 14.32 8.66 15 9 C14.01 9.495 14.01 9.495 13 10 C10.8304939 8.52485505 8.66436293 7.0451561 6.5 5.5625 C5.87996094 5.14162109 5.25992188 4.72074219 4.62109375 4.28710938 C3.06289602 3.21691863 1.52921949 2.11120482 0 1 C0 0.67 0 0.34 0 0 Z " fill="#DC6561" transform="translate(247,117)"/>
<path d="M0 0 C0.99 0 1.98 0 3 0 C3 0.99 3 1.98 3 3 C3.66 3 4.32 3 5 3 C4 5 4 5 2 6 C2 6.66 2 7.32 2 8 C1.01 8.33 0.02 8.66 -1 9 C-1.80967438 6.08517222 -2.21845993 4.53886783 -1.0625 1.6875 C-0.711875 1.130625 -0.36125 0.57375 0 0 Z " fill="#FDDA2B" transform="translate(198,298)"/>
<path d="M0 0 C0.33 0 0.66 0 1 0 C0.67 2.31 0.34 4.62 0 7 C-0.99 7.33 -1.98 7.66 -3 8 C-3 8.66 -3 9.32 -3 10 C-4.98 10.66 -6.96 11.32 -9 12 C-8.60167969 11.55269531 -8.20335937 11.10539062 -7.79296875 10.64453125 C-4.8091044 7.23958629 -2.26706762 3.93753849 0 0 Z " fill="#C79511" transform="translate(314,290)"/>
<path d="M0 0 C1 2 1 2 0.25 4.5 C-1 7 -1 7 -4 9 C-4.33 9.845625 -4.66 10.69125 -5 11.5625 C-5.33 12.366875 -5.66 13.17125 -6 14 C-6.99 14.33 -7.98 14.66 -9 15 C-7.61219205 11.10993227 -5.7847773 8.03441292 -3.375 4.6875 C-2.74335938 3.80449219 -2.11171875 2.92148438 -1.4609375 2.01171875 C-0.97882813 1.34785156 -0.49671875 0.68398437 0 0 Z " fill="#D3B93D" transform="translate(206,198)"/>
<path d="M0 0 C0.33 0.99 0.66 1.98 1 3 C0.01 3 -0.98 3 -2 3 C-2.33 3.99 -2.66 4.98 -3 6 C-5.375 7.75 -5.375 7.75 -8 9 C-8.99 8.67 -9.98 8.34 -11 8 C-7.37 5.36 -3.74 2.72 0 0 Z " fill="#280906" transform="translate(156,80)"/>
<path d="M0 0 C-6.6276327 3.8741903 -11.29711007 5.6212008 -19 5 C-15.58386395 3.14047766 -12.08242178 1.97159236 -8.375 0.8125 C-7.22773438 0.44769531 -6.08046875 0.08289063 -4.8984375 -0.29296875 C-2 -1 -2 -1 0 0 Z " fill="#58480B" transform="translate(329,358)"/>
<path d="M0 0 C0.66 0.33 1.32 0.66 2 1 C0.53779205 4.05034768 -1.10973551 6.90371026 -2.9375 9.75 C-3.44152344 10.54921875 -3.94554687 11.3484375 -4.46484375 12.171875 C-4.97144531 12.77515625 -5.47804688 13.3784375 -6 14 C-6.99 14 -7.98 14 -9 14 C-8.51789063 13.32453125 -8.03578125 12.6490625 -7.5390625 11.953125 C-6.90742188 11.06109375 -6.27578125 10.1690625 -5.625 9.25 C-4.99851562 8.36828125 -4.37203125 7.4865625 -3.7265625 6.578125 C-2.28519059 4.42585021 -1.08501907 2.34539477 0 0 Z " fill="#2A1F03" transform="translate(381,308)"/>
<path d="M0 0 C2.97 0 5.94 0 9 0 C9.66 1.32 10.32 2.64 11 4 C11.99 4 12.98 4 14 4 C13.67 4.99 13.34 5.98 13 7 C12.39671875 6.66226563 11.7934375 6.32453125 11.171875 5.9765625 C10.37265625 5.53054687 9.5734375 5.08453125 8.75 4.625 C7.96109375 4.18414062 7.1721875 3.74328125 6.359375 3.2890625 C4.26504946 2.14481179 2.13457427 1.06728714 0 0 Z " fill="#CA9C12" transform="translate(297,217)"/>
<path d="M0 0 C1 2 1 2 0.375 4.3125 C-1.26715405 7.52216474 -3.39746398 9.53092737 -6 12 C-6.33 12.66 -6.66 13.32 -7 14 C-7.66 14 -8.32 14 -9 14 C-7.65070536 10.16336928 -5.92248975 7.34827431 -3.375 4.1875 C-2.42753906 3.00220703 -2.42753906 3.00220703 -1.4609375 1.79296875 C-0.97882813 1.20128906 -0.49671875 0.60960937 0 0 Z " fill="#CD9C12" transform="translate(231,208)"/>
<path d="M0 0 C0.33 0 0.66 0 1 0 C1.33 2.97 1.66 5.94 2 9 C0.02 9.33 -1.96 9.66 -4 10 C-2.8905928 6.51329166 -1.73662334 3.22515763 0 0 Z " fill="#E3C43C" transform="translate(373,300)"/>
<path d="M0 0 C1.73169596 3.1622274 2.7128976 6.26742722 3.625 9.75 C3.88539063 10.73484375 4.14578125 11.7196875 4.4140625 12.734375 C4.60742188 13.48203125 4.80078125 14.2296875 5 15 C4.01 15 3.02 15 2 15 C0.53329887 9.77487721 -0.22577402 5.4185766 0 0 Z " fill="#DAC03E" transform="translate(197,282)"/>
<path d="M0 0 C2.475 0.495 2.475 0.495 5 1 C5 1.66 5 2.32 5 3 C10.61 3 16.22 3 22 3 C22 3.33 22 3.66 22 4 C19.08234109 4.10806144 16.16868875 4.18732877 13.25 4.25 C12.425 4.28351563 11.6 4.31703125 10.75 4.3515625 C4.57702246 4.45112665 4.57702246 4.45112665 1.421875 1.984375 C0.95265625 1.32953125 0.4834375 0.6746875 0 0 Z " fill="#B5534B" transform="translate(276,138)"/>
<path d="M0 0 C1.98 0 3.96 0 6 0 C6 0.99 6 1.98 6 3 C8.475 3.99 8.475 3.99 11 5 C10.67 5.99 10.34 6.98 10 8 C8.33055479 6.85821872 6.6645052 5.71147095 5 4.5625 C4.071875 3.92441406 3.14375 3.28632813 2.1875 2.62890625 C1.465625 2.09136719 0.74375 1.55382812 0 1 C0 0.67 0 0.34 0 0 Z " fill="#3A100D" transform="translate(302,133)"/>
<path d="M0 0 C0.66 0.33 1.32 0.66 2 1 C0.90648447 4.17119503 -0.0126988 5.00783543 -2.9375 6.8125 C-6 8 -6 8 -9 7 C-6.03 4.69 -3.06 2.38 0 0 Z " fill="#DA635C" transform="translate(129,75)"/>
<path d="M0 0 C0.66 1.32 1.32 2.64 2 4 C1.34 4.66 0.68 5.32 0 6 C-0.99 6 -1.98 6 -3 6 C-3.309375 6.61875 -3.61875 7.2375 -3.9375 7.875 C-4.625 9.25 -5.3125 10.625 -6 12 C-6.66 11.67 -7.32 11.34 -8 11 C-5.36 7.37 -2.72 3.74 0 0 Z " fill="#CBAF33" transform="translate(368,310)"/>
<path d="M0 0 C0.66 0.33 1.32 0.66 2 1 C-1.0657052 5.65987191 -3.58657319 6.85485202 -9 8 C-6.14723863 5.06799526 -3.34920216 2.35684596 0 0 Z " fill="#C7594F" transform="translate(89,104)"/>
<path d="M0 0 C2.97 0.33 5.94 0.66 9 1 C9.33 1.99 9.66 2.98 10 4 C12.01508358 4.73323796 12.01508358 4.73323796 14 5 C13.01 5.33 12.02 5.66 11 6 C9.30963442 5.04060332 7.64605826 4.03357147 6 3 C4.01548229 2.28856912 2.01797888 1.61008664 0 1 C0 0.67 0 0.34 0 0 Z " fill="#BFA72F" transform="translate(242,354)"/>
<path d="M0 0 C-0.66 1.32 -1.32 2.64 -2 4 C-7.28 3.67 -12.56 3.34 -18 3 C-18 2.34 -18 1.68 -18 1 C-16.51886719 1.01740234 -16.51886719 1.01740234 -15.0078125 1.03515625 C-13.72648437 1.04417969 -12.44515625 1.05320312 -11.125 1.0625 C-9.21074219 1.07990234 -9.21074219 1.07990234 -7.2578125 1.09765625 C-4.40918752 1.01226581 -2.70028927 0 0 0 Z " fill="#2C1A00" transform="translate(298,288)"/>
<path d="M0 0 C1.65 0.33 3.3 0.66 5 1 C4.04578192 2.14926266 3.08647955 3.29430541 2.125 4.4375 C1.59132813 5.07558594 1.05765625 5.71367187 0.5078125 6.37109375 C-1 8 -1 8 -3 9 C-3 5 -3 5 -1.5 3.375 C-1.005 2.92125 -0.51 2.4675 0 2 C0 1.34 0 0.68 0 0 Z " fill="#F0CE3C" transform="translate(360,330)"/>
<path d="M0 0 C0.66 0 1.32 0 2 0 C0.74194623 4.50802601 -0.90407165 7.4912812 -4 11 C-4 9.35 -4 7.7 -4 6 C-3.34 6 -2.68 6 -2 6 C-1.855625 5.195625 -1.71125 4.39125 -1.5625 3.5625 C-1 1 -1 1 0 0 Z " fill="#E1C13A" transform="translate(381,304)"/>
<path d="M0 0 C1.25955231 3.77865693 0.48087189 5.03411786 -0.9375 8.6875 C-1.31777344 9.68136719 -1.69804687 10.67523438 -2.08984375 11.69921875 C-2.39019531 12.45847656 -2.69054687 13.21773438 -3 14 C-3.33 14 -3.66 14 -4 14 C-4 11.69 -4 9.38 -4 7 C-3.34 7 -2.68 7 -2 7 C-2 5.35 -2 3.7 -2 2 C-1.34 2 -0.68 2 0 2 C0 1.34 0 0.68 0 0 Z " fill="#DDC03B" transform="translate(387,290)"/>
<path d="M0 0 C2.63978826 3.18595135 5.10498388 6.30970546 7 10 C6.67 10.66 6.34 11.32 6 12 C2.59156258 9.11593757 1.13408616 7.6291735 0.1875 3.1875 C0.125625 2.135625 0.06375 1.08375 0 0 Z " fill="#DEC342" transform="translate(373,201)"/>
<path d="M0 0 C0.66 0 1.32 0 2 0 C2 2 2 2 -0.3125 4.4375 C-1.199375 5.283125 -2.08625 6.12875 -3 7 C-3.598125 7.598125 -4.19625 8.19625 -4.8125 8.8125 C-5.204375 9.204375 -5.59625 9.59625 -6 10 C-6.66 9.67 -7.32 9.34 -8 9 C-6.85459775 7.68712379 -5.70866567 6.37470979 -4.5625 5.0625 C-3.92441406 4.33160156 -3.28632813 3.60070312 -2.62890625 2.84765625 C-1.77458541 1.87860647 -0.91348825 0.91348825 0 0 Z " fill="#382D07" transform="translate(226,191)"/>
<path d="M0 0 C2.4375 0.8125 2.4375 0.8125 5 2 C5.33 2.99 5.66 3.98 6 5 C1.38 4.34 -3.24 3.68 -8 3 C-8 2.67 -8 2.34 -8 2 C-5.03 2 -2.06 2 1 2 C0.67 1.34 0.34 0.68 0 0 Z " fill="#6D302C" transform="translate(313,141)"/>
<path d="M0 0 C4.455 0.99 4.455 0.99 9 2 C9.33 3.65 9.66 5.3 10 7 C5.56541027 5.6062718 3.12621626 3.39417765 0 0 Z " fill="#E2A718" transform="translate(240,321)"/>
<path d="M0 0 C0.33 0 0.66 0 1 0 C0.67 3.96 0.34 7.92 0 12 C-2 10 -2 10 -2.25 6.5625 C-2 3 -2 3 0 0 Z " fill="#C39214" transform="translate(278,236)"/>
<path d="M0 0 C0 0.66 0 1.32 0 2 C-0.66 2 -1.32 2 -2 2 C-2.20625 2.639375 -2.4125 3.27875 -2.625 3.9375 C-4 6 -4 6 -7.125 6.75 C-8.548125 6.87375 -8.548125 6.87375 -10 7 C-3.24137931 0 -3.24137931 0 0 0 Z " fill="#D25F58" transform="translate(76,115)"/>
<path d="M0 0 C3.04049801 3.64859761 4.96518762 7.7444533 7 12 C6.34 12 5.68 12 5 12 C5 11.34 5 10.68 5 10 C4.01 9.67 3.02 9.34 2 9 C1.67 7.02 1.34 5.04 1 3 C0.34 3 -0.32 3 -1 3 C-0.67 2.01 -0.34 1.02 0 0 Z " fill="#DDC73D" transform="translate(202,298)"/>
<path d="M0 0 C3.4375 0.8125 3.4375 0.8125 7 2 C7.33 2.99 7.66 3.98 8 5 C8.66 5.33 9.32 5.66 10 6 C9.67 6.66 9.34 7.32 9 8 C7.49712782 6.85793642 5.99776716 5.71125043 4.5 4.5625 C3.6646875 3.92441406 2.829375 3.28632812 1.96875 2.62890625 C1.3190625 2.09136719 0.669375 1.55382812 0 1 C0 0.67 0 0.34 0 0 Z " fill="#350E0C" transform="translate(208,64)"/>
<path d="M0 0 C1.65 0 3.3 0 5 0 C5 3.3 5 6.6 5 10 C2.8480563 6.77208445 2.79913557 5.71599191 3 2 C2.01 1.67 1.02 1.34 0 1 C0 0.67 0 0.34 0 0 Z " fill="#D3A11F" transform="translate(276,305)"/>
<path d="M0 0 C2.21399303 3.79541663 3.00980198 7.75629421 4 12 C2.35 11.67 0.7 11.34 -1 11 C-0.835 10.113125 -0.67 9.22625 -0.5 8.3125 C-0.07004243 5.46403108 0.08441035 2.86995198 0 0 Z " fill="#AC7536" transform="translate(173,292)"/>
<path d="M0 0 C5.28 0.33 10.56 0.66 16 1 C16 1.99 16 2.98 16 4 C15.34 3.67 14.68 3.34 14 3 C11.62876754 2.76970044 9.25258057 2.58880058 6.875 2.4375 C5.59367187 2.35371094 4.31234375 2.26992188 2.9921875 2.18359375 C1.51105469 2.09271484 1.51105469 2.09271484 0 2 C0 1.34 0 0.68 0 0 Z " fill="#E9B21A" transform="translate(280,269)"/>
<path d="M0 0 C0.33 0 0.66 0 1 0 C1.34833144 4.87664009 0.41685712 7.77050005 -2 12 C-3.12377697 8.69564916 -2.89554742 6.9493138 -1.5625 3.75 C-1.27503906 3.04359375 -0.98757812 2.3371875 -0.69140625 1.609375 C-0.46324219 1.07828125 -0.23507813 0.5471875 0 0 Z " fill="#E2AD1E" transform="translate(216,234)"/>
<path d="M0 0 C1.32 0 2.64 0 4 0 C4 0.66 4 1.32 4 2 C4.61875 2.268125 5.2375 2.53625 5.875 2.8125 C8 4 8 4 10 7 C9.01 7.495 9.01 7.495 8 8 C8 7.34 8 6.68 8 6 C5.525 5.01 5.525 5.01 3 4 C3 3.34 3 2.68 3 2 C2.01 1.67 1.02 1.34 0 1 C0 0.67 0 0.34 0 0 Z " fill="#CB9915" transform="translate(294,233)"/>
<path d="M0 0 C4 1 4 1 6 4 C6.33 4.66 6.66 5.32 7 6 C6.34 7.32 5.68 8.64 5 10 C3.35 6.7 1.7 3.4 0 0 Z " fill="#E4C73C" transform="translate(367,210)"/>
<path d="M0 0 C1.32 0.66 2.64 1.32 4 2 C2.35830472 4.02054804 0.69088222 6.02043058 -1 8 C-1.33 8 -1.66 8 -2 8 C-1.125 1.125 -1.125 1.125 0 0 Z " fill="#E3E7E8" transform="translate(195,181)"/>
<path d="M0 0 C2.97 0.495 2.97 0.495 6 1 C4.35 2.65 2.7 4.3 1 6 C0.67 5.34 0.34 4.68 0 4 C-0.66 3.67 -1.32 3.34 -2 3 C-1.34 2.01 -0.68 1.02 0 0 Z " fill="#E26558" transform="translate(134,90)"/>
<path d="M0 0 C1.4540625 0.0309375 1.4540625 0.0309375 2.9375 0.0625 C0.32235683 2.18288635 -2.25887616 4.19341744 -5.0625 6.0625 C-3.98897059 0.08140756 -3.98897059 0.08140756 0 0 Z " fill="#E1645E" transform="translate(164.0625,71.9375)"/>
<path d="M0 0 C-3.31371 2.20914 -4.3446021 2.22481553 -8.1875 2.125 C-9.08855469 2.10695313 -9.98960937 2.08890625 -10.91796875 2.0703125 C-11.60503906 2.04710937 -12.29210937 2.02390625 -13 2 C-13 1.67 -13 1.34 -13 1 C-11.58622218 0.63447197 -10.16879424 0.28304505 -8.75 -0.0625 C-7.96109375 -0.25972656 -7.1721875 -0.45695312 -6.359375 -0.66015625 C-3.89605178 -1.01497267 -2.34395868 -0.76877544 0 0 Z " fill="#2E1A01" transform="translate(312,337)"/>
<path d="M0 0 C1.40907283 2.81814566 0.50872691 4.17277204 -0.4375 7.125 C-0.72496094 8.03507812 -1.01242187 8.94515625 -1.30859375 9.8828125 C-1.53675781 10.58148438 -1.76492188 11.28015625 -2 12 C-2.33 12 -2.66 12 -3 12 C-3.2954439 6.97745369 -2.98514628 4.10457614 0 0 Z " fill="#3A2D04" transform="translate(380,278)"/>
<path d="M0 0 C0.99 0.33 1.98 0.66 3 1 C-1.625 5.875 -1.625 5.875 -5 7 C-4.67 6.01 -4.34 5.02 -4 4 C-3.34 4 -2.68 4 -2 4 C-1.34 2.68 -0.68 1.36 0 0 Z " fill="#D46159" transform="translate(78,133)"/>
<path d="M0 0 C0.66 0.33 1.32 0.66 2 1 C1.2884375 2.051875 1.2884375 2.051875 0.5625 3.125 C-1.08739857 6.16081337 -1.60368464 8.59168786 -2 12 C-2.33 12 -2.66 12 -3 12 C-3.36923077 4.61538462 -3.36923077 4.61538462 -1.5 1.5 C-1.005 1.005 -0.51 0.51 0 0 Z " fill="#BA5852" transform="translate(20,154)"/>
<path d="M0 0 C0.99 0.33 1.98 0.66 3 1 C0.69 2.65 -1.62 4.3 -4 6 C-4.33 5.01 -4.66 4.02 -5 3 C-2.6875 1.4375 -2.6875 1.4375 0 0 Z " fill="#2D0A08" transform="translate(41,137)"/>
<path d="M0 0 C0.66 0.33 1.32 0.66 2 1 C0.02 3.31 -1.96 5.62 -4 8 C-5.32 7.34 -6.64 6.68 -8 6 C-5.36 4.02 -2.72 2.04 0 0 Z " fill="#434343" transform="translate(100,76)"/>
<path d="M0 0 C-4.75 4 -4.75 4 -7 4 C-7 2.68 -7 1.36 -7 0 C-3.86650268 -1.04449911 -3.01031744 -0.93423645 0 0 Z " fill="#220606" transform="translate(151,60)"/>
<path d="M0 0 C2.31 0.33 4.62 0.66 7 1 C3.36576791 3.32590854 0.22911669 3.16265833 -4 3 C-2.68 2.67 -1.36 2.34 0 2 C0 1.34 0 0.68 0 0 Z " fill="#EECC42" transform="translate(303,361)"/>
<path d="M0 0 C0.33 1.32 0.66 2.64 1 4 C-0.9375 6.25 -0.9375 6.25 -3 8 C-3.99 7.67 -4.98 7.34 -6 7 C-4.02 4.69 -2.04 2.38 0 0 Z " fill="#241800" transform="translate(370,325)"/>
<path d="M0 0 C1.65 0 3.3 0 5 0 C1.375 4.875 1.375 4.875 -2 6 C-1.34 4.02 -0.68 2.04 0 0 Z " fill="#E5B013" transform="translate(337,317)"/>
<path d="M0 0 C1.45742463 -0.08096803 2.91612807 -0.13917774 4.375 -0.1875 C5.18710937 -0.22230469 5.99921875 -0.25710938 6.8359375 -0.29296875 C7.55007813 -0.19628906 8.26421875 -0.09960938 9 0 C9.66 0.99 10.32 1.98 11 3 C7.37 2.67 3.74 2.34 0 2 C0 1.34 0 0.68 0 0 Z " fill="#E3B11B" transform="translate(266,281)"/>
<path d="M0 0 C-0.625 1.9375 -0.625 1.9375 -2 4 C-5.125 4.75 -5.125 4.75 -8 5 C-3.16129032 0 -3.16129032 0 0 0 Z " fill="#2A1400" transform="translate(277,219)"/>
<path d="M0 0 C1.43655854 -0.08131463 2.8744483 -0.13933559 4.3125 -0.1875 C5.51326172 -0.23970703 5.51326172 -0.23970703 6.73828125 -0.29296875 C9.47851584 0.06198392 10.29171079 0.89366282 12 3 C3.96428571 2.19642857 3.96428571 2.19642857 0 0 Z " fill="#5C3E02" transform="translate(300,184)"/>
<path d="M0 0 C0.66 0.33 1.32 0.66 2 1 C1.375 2.875 1.375 2.875 0 5 C-3.125 6.25 -3.125 6.25 -6 7 C-4.02 4.69 -2.04 2.38 0 0 Z " fill="#CEB632" transform="translate(224,179)"/>
<path d="M0 0 C2.64 0.66 5.28 1.32 8 2 C8 3.32 8 4.64 8 6 C4.64532525 4.82133049 2.28780716 3.76945078 0 1 C0 0.67 0 0.34 0 0 Z " fill="#E1C339" transform="translate(329,175)"/>
<path d="M0 0 C0.66 0 1.32 0 2 0 C0.5361389 4.39158329 -1.97831338 4.87947433 -6 7 C-5.34 5.35 -4.68 3.7 -4 2 C-2.68 2 -1.36 2 0 2 C0 1.34 0 0.68 0 0 Z " fill="#D1655C" transform="translate(96,121)"/>
<path d="M0 0 C2.875 0.1875 2.875 0.1875 6 1 C7.375 3.5625 7.375 3.5625 8 6 C6.66402348 5.19185349 5.331275 4.37836819 4 3.5625 C3.2575 3.11003906 2.515 2.65757813 1.75 2.19140625 C1.1725 1.79824219 0.595 1.40507813 0 1 C0 0.67 0 0.34 0 0 Z " fill="#CD5E55" transform="translate(221,98)"/>
<path d="M0 0 C1.32 0.33 2.64 0.66 4 1 C4.33 3.31 4.66 5.62 5 8 C2.74754119 5.31158141 1.11786042 3.35358125 0 0 Z " fill="#DEC33C" transform="translate(199,313)"/>
<path d="M0 0 C0.99 0.33 1.98 0.66 3 1 C2.19185349 2.33597652 1.37836819 3.668725 0.5625 5 C0.11003906 5.7425 -0.34242188 6.485 -0.80859375 7.25 C-1.20175781 7.8275 -1.59492188 8.405 -2 9 C-2.33 9 -2.66 9 -3 9 C-3 7.35 -3 5.7 -3 4 C-2.01 3.67 -1.02 3.34 0 3 C0 2.01 0 1.02 0 0 Z " fill="#2A1400" transform="translate(223,215)"/>
<path d="M0 0 C1.98 0 3.96 0 6 0 C6 0.66 6 1.32 6 2 C6.99 2.33 7.98 2.66 9 3 C5.79937313 4.60031344 3.27728194 3.03173691 0 2 C0 1.34 0 0.68 0 0 Z " fill="#CFB43B" transform="translate(310,169)"/>
<path d="M0 0 C-0.33 0.99 -0.66 1.98 -1 3 C-2.32796291 3.35412344 -3.66216607 3.68521554 -5 4 C-6.73026102 5.47890069 -6.73026102 5.47890069 -8 7 C-6.53112033 2.34854772 -6.53112033 2.34854772 -4 0.6875 C-2 0 -2 0 0 0 Z " fill="#AD783C" transform="translate(146,222)"/>
<path d="M0 0 C1.65 0 3.3 0 5 0 C5.33 1.98 5.66 3.96 6 6 C3.97945196 4.35830472 1.97956942 2.69088222 0 1 C0 0.67 0 0.34 0 0 Z " fill="#E0C639" transform="translate(350,190)"/>
<path d="M0 0 C0.598125 0.185625 1.19625 0.37125 1.8125 0.5625 C4.16408762 1.22093687 4.16408762 1.22093687 7 0 C6 3 6 3 3.9375 4.1875 C3.298125 4.455625 2.65875 4.72375 2 5 C1.34 3.35 0.68 1.7 0 0 Z " fill="#E5685D" transform="translate(33,163)"/>
<path d="M0 0 C0.66 0.33 1.32 0.66 2 1 C1.34 2.32 0.68 3.64 0 5 C-0.99 4.34 -1.98 3.68 -3 3 C-2.01 2.01 -1.02 1.02 0 0 Z M-3 6 C-2.67 6.66 -2.34 7.32 -2 8 C-2.66 7.67 -3.32 7.34 -4 7 C-3.67 6.67 -3.34 6.34 -3 6 Z " fill="#DA5E59" transform="translate(64,122)"/>
<path d="M0 0 C2.88437779 1.29299694 4.87219421 2.65941363 7 5 C5.02 5 3.04 5 1 5 C0.67 3.35 0.34 1.7 0 0 Z " fill="#DBDFE0" transform="translate(201,104)"/>
<path d="M0 0 C3.1875 0.3125 3.1875 0.3125 6 1 C6 1.66 6 2.32 6 3 C3.03 3 0.06 3 -3 3 C-2.01 2.01 -1.02 1.02 0 0 Z " fill="#DCDDE3" transform="translate(165,93)"/>
</svg>
